<svg width="179" height="93" viewBox="0 0 179 93" fill="none" xmlns="http://www.w3.org/2000/svg">
<mask id="mask0_16_543" style="mask-type:luminance" maskUnits="userSpaceOnUse" x="0" y="0" width="179" height="93">
<path d="M156.8 92.2841L19.1829 88.5397C16.0886 88.4581 13.1319 87.3081 10.8666 85.305C8.60121 83.3019 7.18268 80.5833 6.87672 77.6583L0.23404 15.3354C0.0571887 13.6672 0.247152 11.9822 0.791891 10.3874C1.33663 8.79249 2.22427 7.32243 3.39858 6.07031C4.57289 4.8182 6.00827 3.81133 7.61378 3.1135C9.2193 2.41567 10.9599 2.04208 12.7254 2.01641L165.904 0.00598992C167.726 -0.017394 169.531 0.329899 171.2 1.02451C172.868 1.71912 174.36 2.74495 175.576 4.03299C176.793 5.32102 177.704 6.8414 178.25 8.49185C178.795 10.1423 178.962 11.8846 178.739 13.6014L169.821 81.6792C169.423 84.6659 167.87 87.4056 165.464 89.3656C163.057 91.3256 159.969 92.3659 156.8 92.2841Z" fill="white"/>
</mask>
<g mask="url(#mask0_16_543)">
<path d="M150.263 83.0361V113.268H148.093L147.432 83.0361H150.263Z" fill="#B0D7C0"/>
<path d="M147.432 83.0361H150.263V86.3282H147.511L147.432 83.0361Z" fill="#6DAFA7"/>
<path d="M159.42 81.8044H13.9429L29.4248 75.3711H143.912L159.42 81.8044Z" fill="#3401C6"/>
<path d="M159.42 81.8047H13.9429V83.7397H159.42V81.8047Z" fill="#B0D7C0"/>
</g>
</svg>
