<svg width="271" height="193" viewBox="0 0 271 193" fill="none" xmlns="http://www.w3.org/2000/svg">
<path d="M235.8 151.284L98.1829 147.54C95.0886 147.458 92.1319 146.308 89.8666 144.305C87.6012 142.302 86.1827 139.583 85.8767 136.658L79.234 74.3354C79.0572 72.6672 79.2472 70.9822 79.7919 69.3874C80.3366 67.7925 81.2243 66.3224 82.3986 65.0703C83.5729 63.8182 85.0083 62.8113 86.6138 62.1135C88.2193 61.4157 89.9599 61.0421 91.7254 61.0164L244.904 59.006C246.726 58.9826 248.531 59.3299 250.2 60.0245C251.868 60.7191 253.36 61.745 254.576 63.033C255.793 64.321 256.704 65.8414 257.25 67.4918C257.795 69.1423 257.962 70.8846 257.739 72.6014L248.821 140.679C248.423 143.666 246.87 146.406 244.464 148.366C242.057 150.326 238.969 151.366 235.8 151.284Z" fill="#EAF9F3"/>
<mask id="mask0_16_494" style="mask-type:luminance" maskUnits="userSpaceOnUse" x="79" y="59" width="179" height="93">
<path d="M235.8 151.284L98.1829 147.54C95.0886 147.458 92.1319 146.308 89.8666 144.305C87.6012 142.302 86.1827 139.583 85.8767 136.658L79.234 74.3354C79.0572 72.6672 79.2472 70.9822 79.7919 69.3874C80.3366 67.7925 81.2243 66.3224 82.3986 65.0703C83.5729 63.8182 85.0083 62.8113 86.6138 62.1135C88.2193 61.4157 89.9599 61.0421 91.7254 61.0164L244.904 59.006C246.726 58.9826 248.531 59.3299 250.2 60.0245C251.868 60.7191 253.36 61.745 254.576 63.033C255.793 64.321 256.704 65.8414 257.25 67.4918C257.795 69.1423 257.962 70.8846 257.739 72.6014L248.821 140.679C248.423 143.666 246.87 146.406 244.464 148.366C242.057 150.326 238.969 151.366 235.8 151.284Z" fill="white"/>
</mask>
<g mask="url(#mask0_16_494)">
<path d="M90.4834 162.592H-19.478C-20.5309 162.592 -21.5406 162.195 -22.285 161.488C-23.0295 160.781 -23.4478 159.822 -23.4478 158.823V99.5908C-23.4478 98.5911 -23.0295 97.6323 -22.285 96.9254C-21.5406 96.2184 -20.5309 95.8213 -19.478 95.8213H90.4834C91.5362 95.8213 92.5459 96.2184 93.2904 96.9254C94.0349 97.6323 94.4531 98.5911 94.4531 99.5908V158.823C94.4531 159.822 94.0349 160.781 93.2904 161.488C92.5459 162.195 91.5362 162.592 90.4834 162.592Z" stroke="#B8D8C7" stroke-width="1.8" stroke-linecap="round" stroke-linejoin="round"/>
<path d="M268.802 158.622H157.888C156.835 158.622 155.825 158.225 155.081 157.518C154.336 156.811 153.918 155.852 153.918 154.852V68.3291C153.918 67.3294 154.336 66.3706 155.081 65.6636C155.825 64.9567 156.835 64.5596 157.888 64.5596H268.802C269.855 64.5596 270.864 64.9567 271.609 65.6636C272.353 66.3706 272.772 67.3294 272.772 68.3291V154.852C272.772 155.852 272.353 156.811 271.609 157.518C270.864 158.225 269.855 158.622 268.802 158.622Z" stroke="#B8D8C7" stroke-width="1.8" stroke-linecap="round" stroke-linejoin="round"/>
<path d="M89.6366 108.336H65.7653C65.4712 108.334 65.1897 108.223 64.9817 108.025C64.7737 107.828 64.6559 107.56 64.6538 107.281V100.395C64.6559 100.116 64.7737 99.8487 64.9817 99.6512C65.1897 99.4537 65.4712 99.3418 65.7653 99.3398H89.6366C89.9308 99.3418 90.2123 99.4537 90.4203 99.6512C90.6283 99.8487 90.7461 100.116 90.7481 100.395V107.281C90.7518 107.421 90.7255 107.559 90.6709 107.689C90.6164 107.819 90.5346 107.936 90.4307 108.035C90.3267 108.134 90.2027 108.211 90.0662 108.263C89.9297 108.315 89.7836 108.34 89.6366 108.336Z" stroke="#B8D8C7" stroke-width="1.8" stroke-linecap="round" stroke-linejoin="round"/>
<path d="M80.4534 101.752H74.9487C74.8443 101.749 74.7449 101.709 74.671 101.639C74.5971 101.569 74.5544 101.474 74.5518 101.375C74.5544 101.276 74.5971 101.181 74.671 101.111C74.7449 101.041 74.8443 101.001 74.9487 100.998H80.4534C80.5579 101.001 80.6573 101.041 80.7311 101.111C80.805 101.181 80.8477 101.276 80.8504 101.375C80.8477 101.474 80.805 101.569 80.7311 101.639C80.6573 101.709 80.5579 101.749 80.4534 101.752Z" fill="#B8D8C7"/>
<path d="M89.6366 119.846H65.7653C65.4712 119.844 65.1897 119.732 64.9817 119.535C64.7737 119.337 64.6559 119.07 64.6538 118.791V111.905C64.6559 111.626 64.7737 111.358 64.9817 111.161C65.1897 110.963 65.4712 110.852 65.7653 110.85H89.6366C89.9308 110.852 90.2123 110.963 90.4203 111.161C90.6283 111.358 90.7461 111.626 90.7481 111.905V118.791C90.7518 118.93 90.7255 119.069 90.6709 119.199C90.6164 119.328 90.5346 119.446 90.4307 119.545C90.3267 119.643 90.2027 119.721 90.0662 119.773C89.9297 119.825 89.7836 119.85 89.6366 119.846Z" stroke="#B8D8C7" stroke-width="1.8" stroke-linecap="round" stroke-linejoin="round"/>
<path d="M80.4534 113.262H74.9487C74.8443 113.259 74.7449 113.219 74.671 113.148C74.5971 113.078 74.5544 112.984 74.5518 112.885C74.5544 112.786 74.5971 112.691 74.671 112.621C74.7449 112.551 74.8443 112.51 74.9487 112.508H80.4534C80.5579 112.51 80.6573 112.551 80.7311 112.621C80.805 112.691 80.8477 112.786 80.8504 112.885C80.8515 112.935 80.8419 112.984 80.8224 113.03C80.8028 113.076 80.7736 113.118 80.7365 113.154C80.6994 113.189 80.6553 113.217 80.6066 113.235C80.5579 113.254 80.5058 113.263 80.4534 113.262Z" fill="#B8D8C7"/>
<path d="M245.222 127.963H221.35C221.056 127.961 220.775 127.85 220.567 127.652C220.359 127.455 220.241 127.187 220.239 126.908V120.022C220.241 119.743 220.359 119.476 220.567 119.278C220.775 119.081 221.056 118.969 221.35 118.967H245.222C245.516 118.969 245.797 119.081 246.005 119.278C246.213 119.476 246.331 119.743 246.333 120.022V126.908C246.337 127.047 246.31 127.186 246.256 127.316C246.201 127.446 246.12 127.563 246.016 127.662C245.912 127.761 245.788 127.838 245.651 127.89C245.515 127.942 245.369 127.967 245.222 127.963Z" stroke="#B8D8C7" stroke-width="1.8" stroke-linecap="round" stroke-linejoin="round"/>
<path d="M236.038 121.404H230.534C230.429 121.402 230.33 121.361 230.256 121.291C230.182 121.221 230.139 121.127 230.137 121.027C230.139 120.928 230.182 120.834 230.256 120.764C230.33 120.693 230.429 120.653 230.534 120.65H236.038C236.143 120.653 236.242 120.693 236.316 120.764C236.39 120.834 236.433 120.928 236.435 121.027C236.433 121.127 236.39 121.221 236.316 121.291C236.242 121.361 236.143 121.402 236.038 121.404Z" fill="#B8D8C7"/>
<path d="M214.576 127.963H190.704C190.41 127.961 190.129 127.85 189.921 127.652C189.713 127.455 189.595 127.187 189.593 126.908V120.022C189.595 119.743 189.713 119.476 189.921 119.278C190.129 119.081 190.41 118.969 190.704 118.967H214.576C214.87 118.969 215.151 119.081 215.359 119.278C215.567 119.476 215.685 119.743 215.687 120.022V126.908C215.685 127.187 215.567 127.455 215.359 127.652C215.151 127.85 214.87 127.961 214.576 127.963Z" stroke="#B8D8C7" stroke-width="1.8" stroke-linecap="round" stroke-linejoin="round"/>
<path d="M205.392 121.404H199.887C199.783 121.402 199.683 121.361 199.609 121.291C199.536 121.221 199.493 121.127 199.49 121.027C199.493 120.928 199.536 120.834 199.609 120.764C199.683 120.693 199.783 120.653 199.887 120.65H205.392C205.496 120.653 205.596 120.693 205.67 120.764C205.744 120.834 205.786 120.928 205.789 121.027C205.786 121.127 205.744 121.221 205.67 121.291C205.596 121.361 205.496 121.402 205.392 121.404Z" fill="#B8D8C7"/>
<path d="M279.97 90.8964H159.555C159.233 90.8932 158.925 90.7703 158.698 90.5542C158.47 90.3381 158.341 90.046 158.337 89.7404V69.7117C158.341 69.4061 158.47 69.1139 158.698 68.8979C158.925 68.6818 159.233 68.5589 159.555 68.5557H279.97C280.292 68.5589 280.599 68.6818 280.827 68.8979C281.054 69.1139 281.184 69.4061 281.187 69.7117V89.7404C281.188 89.8923 281.156 90.0428 281.095 90.1832C281.034 90.3236 280.945 90.4512 280.831 90.5586C280.718 90.666 280.584 90.7511 280.436 90.8091C280.288 90.8671 280.13 90.8968 279.97 90.8964Z" stroke="#B8D8C7" stroke-width="1.8" stroke-linecap="round" stroke-linejoin="round"/>
<path d="M279.97 115.75H159.555C159.233 115.747 158.925 115.624 158.698 115.408C158.47 115.192 158.341 114.9 158.337 114.594V94.5652C158.341 94.2596 158.47 93.9675 158.698 93.7514C158.925 93.5353 159.233 93.4124 159.555 93.4092H279.97C280.292 93.4124 280.599 93.5353 280.827 93.7514C281.054 93.9675 281.184 94.2596 281.187 94.5652V114.594C281.19 114.746 281.16 114.898 281.1 115.039C281.039 115.18 280.95 115.309 280.836 115.417C280.723 115.524 280.587 115.61 280.439 115.667C280.29 115.724 280.13 115.752 279.97 115.75Z" stroke="#B8D8C7" stroke-width="1.8" stroke-linecap="round" stroke-linejoin="round"/>
<path d="M169.082 78.2559H166.462V90.8964H169.082V78.2559Z" stroke="#B8D8C7" stroke-width="1.8" stroke-linecap="round" stroke-linejoin="round"/>
<path d="M171.782 81.6982H169.056V90.8959H171.782V81.6982Z" stroke="#B8D8C7" stroke-width="1.8" stroke-linecap="round" stroke-linejoin="round"/>
<path d="M248.027 103.084H245.407V115.724H248.027V103.084Z" stroke="#B8D8C7" stroke-width="1.8" stroke-linecap="round" stroke-linejoin="round"/>
<path d="M250.753 106.527H248.027V115.725H250.753V106.527Z" stroke="#B8D8C7" stroke-width="1.8" stroke-linecap="round" stroke-linejoin="round"/>
<path d="M242.707 103.084H240.087V115.724H242.707V103.084Z" stroke="#B8D8C7" stroke-width="1.8" stroke-linecap="round" stroke-linejoin="round"/>
<path d="M237.615 102.795L233.607 114.85L236.106 115.599L240.113 103.544L237.615 102.795Z" stroke="#B8D8C7" stroke-width="1.8" stroke-linecap="round" stroke-linejoin="round"/>
<path d="M245.433 106.527H242.708V115.725H245.433V106.527Z" stroke="#B8D8C7" stroke-width="1.8" stroke-linecap="round" stroke-linejoin="round"/>
<path d="M212.696 78.2559H210.076V90.8964H212.696V78.2559Z" stroke="#B8D8C7" stroke-width="1.8" stroke-linecap="round" stroke-linejoin="round"/>
<path d="M215.422 81.6982H212.696V90.8959H215.422V81.6982Z" stroke="#B8D8C7" stroke-width="1.8" stroke-linecap="round" stroke-linejoin="round"/>
<path d="M186.814 78.2559H184.194V90.8964H186.814V78.2559Z" stroke="#B8D8C7" stroke-width="1.8" stroke-linecap="round" stroke-linejoin="round"/>
<path d="M181.724 77.9664L177.717 90.0205L180.215 90.7695L184.223 78.7153L181.724 77.9664Z" stroke="#B8D8C7" stroke-width="1.8" stroke-linecap="round" stroke-linejoin="round"/>
<path d="M189.54 81.6982H186.814V90.8959H189.54V81.6982Z" stroke="#B8D8C7" stroke-width="1.8" stroke-linecap="round" stroke-linejoin="round"/>
<path d="M248 79.9138L248.292 76.1694C248.297 76.1108 248.29 76.0517 248.269 75.9961C248.249 75.9404 248.217 75.8895 248.174 75.8467C248.132 75.804 248.08 75.7703 248.023 75.7479C247.965 75.7255 247.904 75.715 247.842 75.717H245.566C245.504 75.7173 245.444 75.7294 245.388 75.7525C245.331 75.7757 245.281 75.8094 245.239 75.8517C245.197 75.894 245.164 75.944 245.143 75.9986C245.122 76.0532 245.113 76.1113 245.116 76.1694L245.407 79.9138C245.407 79.9138 243.025 81.3713 243.051 82.5776C243.078 83.5074 243.66 87.9555 243.925 89.9156C243.959 90.1795 244.093 90.4224 244.303 90.5984C244.512 90.7744 244.783 90.8713 245.063 90.8706H248.344C248.624 90.8713 248.895 90.7744 249.105 90.5984C249.314 90.4224 249.449 90.1795 249.482 89.9156C249.747 87.9555 250.329 83.5074 250.356 82.5776C250.382 81.3462 248 79.9138 248 79.9138Z" fill="#B8D8C7"/>
<path d="M237.441 79.9138L237.732 76.1694C237.738 76.1108 237.73 76.0517 237.71 75.9961C237.69 75.9404 237.657 75.8895 237.615 75.8467C237.572 75.804 237.52 75.7703 237.463 75.7479C237.406 75.7255 237.344 75.715 237.282 75.717H235.006C234.945 75.7173 234.884 75.7294 234.828 75.7525C234.772 75.7757 234.721 75.8094 234.679 75.8517C234.637 75.894 234.604 75.944 234.583 75.9986C234.562 76.0532 234.553 76.1113 234.556 76.1694L234.847 79.9138C234.847 79.9138 232.465 81.3713 232.492 82.5776C232.518 83.5074 233.101 87.9555 233.365 89.9156C233.399 90.1795 233.533 90.4224 233.743 90.5984C233.953 90.7744 234.223 90.8713 234.503 90.8706H237.785C238.065 90.8713 238.335 90.7744 238.545 90.5984C238.755 90.4224 238.889 90.1795 238.923 89.9156C239.188 87.9555 239.77 83.5074 239.796 82.5776C239.823 81.3462 237.441 79.9138 237.441 79.9138Z" fill="#B8D8C7"/>
<path d="M78.8374 139.473H331.788" stroke="#B8D8C7" stroke-width="1.8" stroke-linecap="round" stroke-linejoin="round"/>
</g>
<mask id="mask1_16_494" style="mask-type:luminance" maskUnits="userSpaceOnUse" x="79" y="59" width="179" height="93">
<path d="M235.8 151.284L98.1829 147.54C95.0886 147.458 92.1319 146.308 89.8666 144.305C87.6012 142.302 86.1827 139.583 85.8767 136.658L79.234 74.3354C79.0572 72.6672 79.2472 70.9822 79.7919 69.3874C80.3366 67.7925 81.2243 66.3224 82.3986 65.0703C83.5729 63.8182 85.0083 62.8113 86.6138 62.1135C88.2193 61.4157 89.9599 61.0421 91.7254 61.0164L244.904 59.006C246.726 58.9826 248.531 59.3299 250.2 60.0245C251.868 60.7191 253.36 61.745 254.576 63.033C255.793 64.321 256.704 65.8414 257.25 67.4918C257.795 69.1423 257.962 70.8846 257.739 72.6014L248.821 140.679C248.423 143.666 246.87 146.406 244.464 148.366C242.057 150.326 238.969 151.366 235.8 151.284Z" fill="white"/>
</mask>
<g mask="url(#mask1_16_494)">
<path d="M229.263 142.036V172.268H227.093L226.432 142.036H229.263Z" fill="#B0D7C0"/>
<path d="M226.432 142.036H229.263V145.328H226.511L226.432 142.036Z" fill="#6DAFA7"/>
<path d="M238.42 140.804H92.9429L108.425 134.371H222.912L238.42 140.804Z" fill="#3401C6"/>
<path d="M238.42 140.805H92.9429V142.74H238.42V140.805Z" fill="#B0D7C0"/>
</g>
<path d="M77.1183 126.002L73.7573 127.837C73.6359 127.904 73.5017 127.947 73.3625 127.965C73.2233 127.982 73.0818 127.973 72.9464 127.938C72.8109 127.903 72.6842 127.843 72.5735 127.76C72.4628 127.678 72.3704 127.576 72.3017 127.46L62.6685 111.678C62.5979 111.563 62.5521 111.436 62.5339 111.303C62.5156 111.171 62.5253 111.037 62.5622 110.908C62.5991 110.78 62.6627 110.659 62.7491 110.554C62.8355 110.449 62.943 110.361 63.0655 110.296L66.4265 108.462C66.5479 108.395 66.6821 108.351 66.8213 108.334C66.9605 108.316 67.102 108.326 67.2374 108.361C67.3729 108.396 67.4996 108.456 67.6103 108.538C67.721 108.62 67.8134 108.722 67.8821 108.839L77.5153 124.62C77.6529 124.854 77.6884 125.13 77.6142 125.388C77.54 125.647 77.3619 125.867 77.1183 126.002Z" fill="#22272E"/>
<path d="M74.7631 123.766C74.6582 123.595 74.5023 123.457 74.315 123.37C74.1277 123.282 73.9174 123.249 73.7105 123.275C73.5036 123.301 73.3094 123.384 73.1522 123.514C72.9949 123.645 72.8818 123.816 72.8269 124.007C72.7719 124.198 72.7778 124.401 72.8436 124.589C72.9094 124.777 73.0322 124.942 73.1967 125.064C73.3612 125.186 73.5599 125.259 73.768 125.274C73.9761 125.289 74.1842 125.245 74.3662 125.148C74.6098 125.013 74.7878 124.793 74.8621 124.534C74.9363 124.276 74.9008 124 74.7631 123.766Z" fill="#63737A"/>
<path d="M70.3438 121.254L72.805 119.896" stroke="#63737A" stroke-width="1.8" stroke-linecap="round" stroke-linejoin="round"/>
<path d="M69.6553 120.147L72.143 118.79" stroke="#63737A" stroke-width="1.8" stroke-linecap="round" stroke-linejoin="round"/>
<path d="M82.2 115.222L80.0299 123.942C79.9505 124.193 81.2208 124.821 82.9146 125.374C84.6083 125.927 86.0374 126.178 86.1168 125.952L90.113 117.835L82.2 115.222Z" fill="#3401C6"/>
<path d="M88.0483 120.021L89.5304 120.499C89.684 120.549 89.8246 120.63 89.9423 120.736C90.06 120.842 90.1522 120.971 90.2125 121.114C90.2728 121.258 90.2999 121.411 90.2918 121.565C90.2836 121.719 90.2406 121.87 90.1655 122.007L88.9217 124.268C88.7949 124.496 88.5857 124.672 88.3327 124.765C88.0798 124.857 87.8001 124.859 87.5455 124.771L85.9312 124.243" stroke="#3401C6" stroke-width="1.8" stroke-linecap="round" stroke-linejoin="round"/>
<path d="M90.113 117.861C90.0071 118.162 88.1281 117.836 85.958 117.107C83.7879 116.378 82.0942 115.549 82.2 115.222C82.3059 114.895 84.1849 115.247 86.355 115.976C88.5251 116.705 90.2189 117.534 90.113 117.861Z" fill="#6DAFA7"/>
<path d="M104.192 72.5765L73.837 80.2161C73.5785 80.283 73.3078 80.2958 73.0435 80.2537C72.7792 80.2117 72.5277 80.1156 72.3063 79.9723C72.0849 79.8289 71.8989 79.6417 71.7611 79.4235C71.6233 79.2052 71.537 78.9612 71.5081 78.7083L67.7237 47.6222C67.701 47.4465 67.7199 47.2681 67.7789 47.1002C67.8379 46.9323 67.9356 46.7789 68.0649 46.6514C68.1942 46.5238 68.3518 46.4252 68.5262 46.3627C68.7007 46.3003 68.8876 46.2755 69.0734 46.2903L99.9314 48.3258C100.357 48.3507 100.761 48.5143 101.074 48.789C101.387 49.0637 101.591 49.4327 101.652 49.8336L105.092 71.2446C105.145 71.5333 105.082 71.8305 104.916 72.0772C104.749 72.3239 104.491 72.5021 104.192 72.5765Z" fill="#63737A"/>
<path d="M105.594 72.6766L74.9217 80.3916C74.6598 80.4558 74.3864 80.4659 74.12 80.4214C73.8536 80.3769 73.6003 80.2787 73.3771 80.1335C73.154 79.9883 72.9662 79.7994 72.8263 79.5795C72.6865 79.3596 72.5978 79.1138 72.5664 78.8587L68.7554 47.4459C68.7353 47.2673 68.7565 47.0867 68.8178 46.9168C68.8791 46.7469 68.9788 46.5918 69.11 46.4624C69.2412 46.333 69.4006 46.2326 69.5772 46.168C69.7537 46.1035 69.9429 46.0765 70.1316 46.0889L101.334 48.1244C101.762 48.1497 102.168 48.3128 102.486 48.5869C102.803 48.8611 103.013 49.2298 103.08 49.6322L106.574 71.2693C106.608 71.5754 106.529 71.8833 106.351 72.1402C106.172 72.397 105.905 72.5867 105.594 72.6766Z" fill="#22272E"/>
<path d="M81.591 52.0442L74.1014 51.9437C74.0284 51.9446 73.9578 51.9191 73.9037 51.8725C73.8497 51.8258 73.8163 51.7615 73.8103 51.6924L73.7044 50.8882C73.6993 50.8483 73.7029 50.8079 73.715 50.7693C73.7271 50.7308 73.7474 50.6951 73.7748 50.6645C73.8021 50.6338 73.8359 50.6088 73.8738 50.5911C73.9118 50.5734 73.9533 50.5633 73.9955 50.5615L81.5116 50.7626C81.5846 50.7617 81.6552 50.7871 81.7092 50.8338C81.7633 50.8804 81.7967 50.9448 81.8027 51.0139L81.9085 51.7426C81.9072 51.8222 81.8733 51.8982 81.814 51.9544C81.7547 52.0107 81.6748 52.0429 81.591 52.0442Z" fill="#6DAFA7"/>
<path d="M74.1812 54.7081L88.6839 54.5322" stroke="#63737A" stroke-width="1.8" stroke-linecap="round" stroke-linejoin="round"/>
<path d="M74.5513 57.4983L83.7346 57.1465" stroke="#63737A" stroke-width="1.8" stroke-linecap="round" stroke-linejoin="round"/>
<path d="M77.9918 74.6874L77.1185 74.8633C77.0729 74.8741 77.0254 74.8752 76.9793 74.8666C76.9332 74.858 76.8897 74.8398 76.8518 74.8134C76.8139 74.7871 76.7826 74.7531 76.7601 74.7139C76.7376 74.6748 76.7244 74.6314 76.7215 74.5869L75.8482 67.6258C75.8423 67.5845 75.8452 67.5424 75.8567 67.5021C75.8682 67.4619 75.8882 67.4242 75.9153 67.3914C75.9425 67.3586 75.9763 67.3313 76.0148 67.3111C76.0533 67.2909 76.0956 67.2783 76.1393 67.274L77.0126 67.1483C77.0562 67.1427 77.1005 67.1455 77.1429 67.1564C77.1853 67.1674 77.225 67.1863 77.2595 67.2121C77.2941 67.2379 77.3228 67.27 77.3441 67.3065C77.3653 67.343 77.3786 67.3833 77.3832 67.4248L78.283 74.3356C78.2796 74.4158 78.2496 74.493 78.1973 74.5562C78.1451 74.6194 78.0732 74.6653 77.9918 74.6874Z" fill="#3401C6"/>
<path d="M81.0884 73.7074L79.6329 62.6501C79.627 62.6087 79.6299 62.5667 79.6414 62.5264C79.6529 62.4861 79.6729 62.4485 79.7 62.4157C79.7272 62.3829 79.761 62.3556 79.7994 62.3354C79.8379 62.3152 79.8803 62.3026 79.924 62.2983L80.665 62.2229C80.7073 62.2159 80.7508 62.2178 80.7922 62.2285C80.8337 62.2392 80.8722 62.2584 80.905 62.2848C80.9378 62.3111 80.9642 62.344 80.9821 62.3811C81.0001 62.4181 81.0093 62.4585 81.009 62.4993L82.4646 73.4561C82.4744 73.5355 82.4527 73.6155 82.4038 73.6805C82.3549 73.7455 82.2822 73.791 82.2 73.8079L81.4325 73.9587C81.3002 74.0089 81.1149 73.8833 81.0884 73.7074Z" fill="#6DAFA7"/>
<path d="M85.1376 72.8778L84.5818 68.8067C84.5701 68.7271 84.591 68.6462 84.6402 68.5807C84.6895 68.5152 84.7633 68.4702 84.8464 68.4549L85.4816 68.3544C85.5251 68.3488 85.5694 68.3515 85.6118 68.3625C85.6542 68.3734 85.6939 68.3924 85.7285 68.4182C85.763 68.4439 85.7918 68.476 85.813 68.5126C85.8342 68.5491 85.8475 68.5893 85.8521 68.6308L86.4079 72.6768C86.4177 72.7562 86.396 72.8362 86.3471 72.9012C86.2981 72.9663 86.2255 73.0117 86.1432 73.0286L85.5081 73.1543C85.4642 73.1618 85.4192 73.1604 85.376 73.1502C85.3328 73.14 85.2924 73.1213 85.2574 73.0951C85.2223 73.069 85.1936 73.0361 85.1729 72.9987C85.1523 72.9612 85.1402 72.92 85.1376 72.8778Z" fill="#3401C6"/>
<path d="M89.795 72.2747L89.2392 72.3752C89.1956 72.3863 89.15 72.3885 89.1054 72.3815C89.0609 72.3745 89.0184 72.3586 88.9809 72.3349C88.9433 72.3111 88.9115 72.28 88.8876 72.2436C88.8637 72.2072 88.8482 72.1664 88.8422 72.1239L88.5247 69.9376C88.5129 69.8579 88.5339 69.777 88.5831 69.7116C88.6323 69.6461 88.7061 69.6011 88.7893 69.5858L89.3451 69.4853C89.3889 69.4777 89.4339 69.4791 89.4771 69.4893C89.5203 69.4995 89.5608 69.5182 89.5958 69.5444C89.6308 69.5705 89.6596 69.6034 89.6802 69.6408C89.7009 69.6783 89.7129 69.7195 89.7156 69.7617L90.0332 71.948C90.0463 72.0212 90.0288 72.0964 89.9843 72.1575C89.9397 72.2186 89.8718 72.2607 89.795 72.2747Z" fill="#F4C2C9"/>
<path d="M100.593 69.2333L98.3169 64.3832L100.275 60.0859C101.175 60.9906 101.837 62.3477 102.101 63.8806C102.392 66.0669 101.784 68.1527 100.593 69.2333Z" fill="#6DAFA7"/>
<path d="M100.249 60.0865L98.2905 64.3837L94.4531 61.4686C95.0089 59.9859 96.094 58.9556 97.4437 58.8802C98.4493 58.8048 99.455 59.2572 100.249 60.0865Z" fill="#F4C2C9"/>
<path d="M100.593 69.2337C100.199 69.6003 99.7031 69.8531 99.1637 69.9625C96.9406 70.4148 94.6382 68.1531 94.1618 64.9113C93.9812 63.7493 94.0807 62.5635 94.4529 61.4434L98.2903 64.3585L100.593 69.2337Z" fill="#3401C6"/>
<path d="M159.238 47.8227C160.38 49.8791 161.653 51.868 163.048 53.7786C163.146 53.9142 163.271 54.0299 163.416 54.1188C163.561 54.2077 163.724 54.268 163.894 54.2961C164.065 54.3242 164.239 54.3196 164.407 54.2825C164.576 54.2454 164.735 54.1766 164.875 54.0802C166.116 53.2817 167.417 52.5679 168.765 51.9441C169.087 51.7895 169.337 51.5255 169.465 51.2044C169.592 50.8833 169.588 50.5284 169.453 50.2101C168.738 48.6269 167.997 46.516 167.389 44.6563C167.2 44.0781 166.88 43.5459 166.453 43.0968C166.025 42.6477 165.499 42.2924 164.913 42.0556C164.326 41.8189 163.692 41.7063 163.054 41.7258C162.417 41.7453 161.792 41.8963 161.222 42.1684C160.695 42.4097 160.224 42.7489 159.837 43.1661C159.451 43.5833 159.156 44.0699 158.971 44.5971C158.786 45.1244 158.714 45.6815 158.76 46.2356C158.806 46.7896 158.968 47.3294 159.238 47.8227Z" fill="#3401C6"/>
<path d="M168.024 50.5615C168.214 50.5539 168.403 50.5912 168.574 50.6702C168.745 50.7492 168.892 50.8673 169.003 51.0139C169.572 51.8223 170.268 52.5428 171.067 53.1499C172.311 53.9792 176.837 54.708 177.207 55.3363C177.578 55.9645 176.493 56.1656 175.752 56.0902C175.011 56.0148 174.375 55.9394 174.217 56.241C174.058 56.5425 174.27 57.799 175.302 58.6786C176.334 59.5581 178.186 60.488 178.266 61.2921C178.345 62.0963 176.254 61.3173 175.328 60.7644C174.402 60.2115 174.137 60.111 174.137 60.111C174.137 60.111 174.005 60.3623 173.264 60.6136C172.84 60.7393 172.391 60.4126 171.994 60.488C171.597 60.5633 169.823 61.4178 168.977 61.0157C168.368 60.7141 167.018 57.799 166.357 57.02C165.88 56.442 164.742 54.7834 164.186 53.9541C164.072 53.791 164.009 53.6006 164.005 53.4049C164 53.2092 164.054 53.0162 164.16 52.8484C164.526 52.171 165.079 51.6006 165.759 51.1979C166.439 50.7952 167.222 50.5753 168.024 50.5615Z" fill="#F4C2C9"/>
<path d="M174.11 60.1363C173.591 59.8876 173.103 59.5841 172.655 59.2316C172.49 59.0646 172.348 58.8789 172.231 58.6787" stroke="#E26E85" stroke-width="1.8" stroke-linecap="round" stroke-linejoin="round"/>
<path d="M171.967 60.488C171.663 60.3706 171.371 60.2277 171.093 60.0608C170.874 59.8374 170.679 59.5932 170.511 59.332" stroke="#E26E85" stroke-width="1.8" stroke-linecap="round" stroke-linejoin="round"/>
<path d="M170.432 60.9906C170.166 60.8916 169.916 60.7561 169.691 60.5885C169.492 60.3991 169.307 60.1976 169.135 59.9854" stroke="#E26E85" stroke-width="1.8" stroke-linecap="round" stroke-linejoin="round"/>
<path d="M150.504 67.7009C150.517 67.6569 150.544 67.6181 150.583 67.5905C150.621 67.5628 150.668 67.5479 150.716 67.5479C150.764 67.5479 150.811 67.5628 150.849 67.5905C150.887 67.6181 150.915 67.6569 150.927 67.7009C151.021 68.0448 151.183 68.3688 151.404 68.6558C151.709 68.8605 152.049 69.0135 152.409 69.1082C152.456 69.1203 152.497 69.1466 152.526 69.1829C152.555 69.2192 152.571 69.2636 152.571 69.3092C152.571 69.3548 152.555 69.3992 152.526 69.4355C152.497 69.4718 152.456 69.4981 152.409 69.5102C152.047 69.5995 151.706 69.753 151.404 69.9626C151.188 70.2524 151.027 70.5755 150.927 70.9175C150.915 70.9615 150.887 71.0003 150.849 71.0279C150.811 71.0556 150.764 71.0705 150.716 71.0705C150.668 71.0705 150.621 71.0556 150.583 71.0279C150.544 71.0003 150.517 70.9615 150.504 70.9175C150.41 70.5736 150.248 70.2495 150.028 69.9626C149.722 69.7579 149.382 69.6049 149.022 69.5102C148.976 69.4981 148.935 69.4718 148.906 69.4355C148.877 69.3992 148.861 69.3548 148.861 69.3092C148.861 69.2636 148.877 69.2192 148.906 69.1829C148.935 69.1466 148.976 69.1203 149.022 69.1082C149.402 69.0722 149.758 68.9124 150.028 68.6558C150.298 68.3993 150.466 68.0619 150.504 67.7009Z" fill="#6DAFA7"/>
<path d="M153.706 53.2009C153.717 53.1689 153.738 53.141 153.767 53.1213C153.795 53.1015 153.83 53.0908 153.865 53.0908C153.9 53.0908 153.935 53.1015 153.963 53.1213C153.992 53.141 154.013 53.1689 154.024 53.2009C154.089 53.4467 154.206 53.6775 154.368 53.8794C154.584 54.0277 154.826 54.1383 155.082 54.2061C155.118 54.2148 155.149 54.2343 155.171 54.2616C155.193 54.2889 155.205 54.3224 155.205 54.3569C155.205 54.3913 155.193 54.4249 155.171 54.4521C155.149 54.4794 155.118 54.4989 155.082 54.5076C154.824 54.5698 154.581 54.681 154.368 54.8343C154.212 55.0393 154.095 55.2691 154.024 55.5128C154.013 55.5448 153.992 55.5727 153.963 55.5925C153.935 55.6122 153.9 55.6229 153.865 55.6229C153.83 55.6229 153.795 55.6122 153.767 55.5925C153.738 55.5727 153.717 55.5448 153.706 55.5128C153.641 55.267 153.524 55.0363 153.362 54.8343C153.146 54.686 152.904 54.5754 152.648 54.5076C152.612 54.4989 152.581 54.4794 152.559 54.4521C152.537 54.4249 152.525 54.3913 152.525 54.3569C152.525 54.3224 152.537 54.2889 152.559 54.2616C152.581 54.2343 152.612 54.2148 152.648 54.2061C152.918 54.177 153.17 54.0618 153.362 53.8792C153.554 53.6966 153.676 53.4574 153.706 53.2009Z" fill="#6DAFA7"/>
<path d="M178.768 65.6908C178.777 65.6574 178.798 65.6278 178.827 65.6068C178.855 65.5857 178.891 65.5742 178.927 65.5742C178.963 65.5742 178.999 65.5857 179.027 65.6068C179.056 65.6278 179.077 65.6574 179.086 65.6908C179.151 65.9366 179.268 66.1674 179.43 66.3693C179.652 66.5077 179.892 66.6176 180.144 66.696C180.178 66.7062 180.207 66.7263 180.228 66.7534C180.249 66.7805 180.26 66.8132 180.26 66.8468C180.26 66.8803 180.249 66.913 180.228 66.9401C180.207 66.9672 180.178 66.9873 180.144 66.9975C179.886 67.0598 179.642 67.1709 179.43 67.3242C179.274 67.5292 179.157 67.759 179.086 68.0027C179.075 68.0347 179.054 68.0626 179.025 68.0824C178.997 68.1021 178.962 68.1128 178.927 68.1128C178.892 68.1128 178.857 68.1021 178.829 68.0824C178.8 68.0626 178.779 68.0347 178.768 68.0027C178.703 67.7569 178.586 67.5262 178.424 67.3242C178.208 67.1759 177.966 67.0653 177.71 66.9975C177.676 66.9873 177.647 66.9672 177.626 66.9401C177.605 66.913 177.594 66.8803 177.594 66.8468C177.594 66.8132 177.605 66.7805 177.626 66.7534C177.647 66.7263 177.676 66.7062 177.71 66.696C177.969 66.6338 178.212 66.5227 178.424 66.3693C178.596 66.1734 178.714 65.9403 178.768 65.6908Z" fill="#6DAFA7"/>
<path d="M156.379 61.3931C156.432 61.2674 156.591 61.2674 156.617 61.3931C156.68 61.5875 156.769 61.7734 156.882 61.9459C157.052 62.0736 157.251 62.1599 157.464 62.1972C157.597 62.2475 157.597 62.3983 157.464 62.4234C157.259 62.4827 157.064 62.5671 156.882 62.6747C156.748 62.8357 156.657 63.0255 156.617 63.2276C156.564 63.3532 156.406 63.3532 156.379 63.2276C156.317 63.0331 156.228 62.8472 156.115 62.6747C155.945 62.547 155.745 62.4607 155.532 62.4234C155.4 62.3731 155.4 62.2224 155.532 62.1972C155.737 62.138 155.933 62.0535 156.115 61.9459C156.233 61.7761 156.322 61.5895 156.379 61.3931Z" fill="#FFE779"/>
<path d="M180.885 72.4001C180.898 72.3561 180.926 72.3173 180.964 72.2897C181.002 72.262 181.049 72.2471 181.097 72.2471C181.145 72.2471 181.192 72.262 181.23 72.2897C181.268 72.3173 181.296 72.3561 181.309 72.4001C181.403 72.7441 181.564 73.0681 181.785 73.355C182.09 73.5597 182.431 73.7128 182.791 73.8074C182.837 73.8195 182.878 73.8458 182.907 73.8821C182.936 73.9184 182.952 73.9628 182.952 74.0084C182.952 74.0541 182.936 74.0984 182.907 74.1347C182.878 74.1711 182.837 74.1973 182.791 74.2095C182.429 74.2987 182.087 74.4522 181.785 74.6618C181.57 74.9517 181.408 75.2747 181.309 75.6167C181.296 75.6607 181.268 75.6995 181.23 75.7272C181.192 75.7548 181.145 75.7698 181.097 75.7698C181.049 75.7698 181.002 75.7548 180.964 75.7272C180.926 75.6995 180.898 75.6607 180.885 75.6167C180.791 75.2728 180.63 74.9488 180.409 74.6618C180.104 74.4571 179.763 74.3041 179.403 74.2095C179.357 74.1973 179.316 74.1711 179.287 74.1347C179.258 74.0984 179.242 74.0541 179.242 74.0084C179.242 73.9628 179.258 73.9184 179.287 73.8821C179.316 73.8458 179.357 73.8195 179.403 73.8074C179.766 73.7181 180.107 73.5646 180.409 73.355C180.619 73.0623 180.78 72.7401 180.885 72.4001Z" fill="#FFE779"/>
<path d="M225.611 67.3994C225.611 67.3994 225.241 67.7512 225.929 70.415C226.386 72.0935 227.147 73.6837 228.178 75.1144C228.791 74.5631 229.242 73.8704 229.488 73.1039C229.734 72.3375 229.766 71.5235 229.581 70.7417C228.999 67.9774 225.611 67.3994 225.611 67.3994Z" fill="#22272E"/>
<path d="M226.008 75.2402C226.008 75.2402 225.479 75.391 224.235 76.6224C222.991 77.8538 221.165 78.482 218.995 79.4118C216.825 80.3417 215.766 76.0193 216.322 73.8329C216.878 71.6466 219.233 70.1388 219.233 70.1388L223.864 70.7419C223.864 70.7419 225.399 69.0079 226.008 70.1388C226.617 71.2696 226.537 73.8078 226.008 75.2402Z" fill="#F4C2C9"/>
<path d="M222.038 83.2566L206.265 86.6995C206.102 86.736 205.932 86.7416 205.767 86.7159C205.601 86.6901 205.443 86.6336 205.3 86.5496C205.157 86.4656 205.034 86.3556 204.936 86.2261C204.838 86.0966 204.768 85.95 204.73 85.7948L200.258 67.3995C200.219 67.2443 200.213 67.0835 200.24 66.9263C200.267 66.769 200.327 66.6183 200.415 66.4829C200.504 66.3475 200.62 66.23 200.756 66.1372C200.893 66.0444 201.047 65.978 201.21 65.9419L216.983 62.4991C217.147 62.4625 217.316 62.457 217.482 62.4827C217.647 62.5084 217.806 62.5649 217.949 62.6489C218.091 62.733 218.215 62.8429 218.313 62.9724C218.41 63.102 218.48 63.2485 218.518 63.4038L222.964 81.7991C223.008 81.9526 223.019 82.113 222.995 82.2705C222.972 82.428 222.916 82.5794 222.829 82.7156C222.742 82.8518 222.628 82.9699 222.492 83.0629C222.356 83.1559 222.202 83.2218 222.038 83.2566Z" fill="#22272E"/>
<path d="M215.396 67.7762L205.127 70.0128C205.047 70.0308 204.964 70.0334 204.883 70.0202C204.802 70.0071 204.725 69.9785 204.655 69.9363C204.586 69.8941 204.527 69.839 204.48 69.7744C204.434 69.7098 204.402 69.6371 204.386 69.5604C204.367 69.4844 204.365 69.4056 204.378 69.3286C204.392 69.2516 204.422 69.1781 204.467 69.1124C204.511 69.0467 204.569 68.9902 204.637 68.9463C204.705 68.9024 204.782 68.8719 204.863 68.8568L215.131 66.6202C215.211 66.6022 215.294 66.5996 215.375 66.6128C215.456 66.6259 215.534 66.6545 215.603 66.6967C215.672 66.7389 215.731 66.794 215.778 66.8586C215.824 66.9231 215.856 66.9959 215.872 67.0725C215.896 67.2247 215.86 67.3798 215.773 67.5092C215.685 67.6386 215.551 67.7335 215.396 67.7762Z" fill="#3401C6"/>
<path d="M205.101 72.6009L216.587 70.0879" stroke="#63737A" stroke-width="1.8" stroke-linecap="round" stroke-linejoin="round"/>
<path d="M205.551 74.4359L217.037 71.9229" stroke="#63737A" stroke-width="1.8" stroke-linecap="round" stroke-linejoin="round"/>
<path d="M212.405 81.673L208.171 82.6028C208.091 82.6209 208.008 82.6234 207.927 82.6103C207.846 82.5971 207.768 82.5686 207.699 82.5263C207.63 82.4841 207.57 82.429 207.524 82.3645C207.478 82.2999 207.446 82.2271 207.43 82.1505L206.451 78.1296C206.432 78.0537 206.429 77.9748 206.443 77.8978C206.457 77.8208 206.487 77.7473 206.531 77.6816C206.576 77.6159 206.634 77.5594 206.702 77.5155C206.77 77.4716 206.846 77.4411 206.927 77.426L211.161 76.4962C211.241 76.4781 211.324 76.4756 211.406 76.4887C211.487 76.5019 211.564 76.5304 211.633 76.5727C211.702 76.6149 211.762 76.67 211.808 76.7345C211.854 76.7991 211.886 76.8719 211.902 76.9485L212.882 80.9694C212.905 81.1215 212.87 81.2767 212.782 81.406C212.695 81.5354 212.561 81.6303 212.405 81.673Z" fill="#3401C6"/>
<path d="M213.464 75.9686L217.778 75.0137" stroke="#63737A" stroke-width="1.8" stroke-linecap="round" stroke-linejoin="round"/>
<path d="M213.94 77.9542L218.28 77.0244" stroke="#63737A" stroke-width="1.8" stroke-linecap="round" stroke-linejoin="round"/>
<path d="M214.417 79.9647L217.037 79.3867" stroke="#63737A" stroke-width="1.8" stroke-linecap="round" stroke-linejoin="round"/>
<path d="M212.061 64.1577L206.45 65.3891C206.36 65.4073 206.265 65.4037 206.176 65.3786C206.087 65.3534 206.006 65.3076 205.94 65.2452C205.875 65.1828 205.826 65.1058 205.8 65.0213C205.774 64.9367 205.77 64.8472 205.789 64.7608L205.842 64.5095C205.867 64.412 205.919 64.3229 205.994 64.2519C206.069 64.181 206.163 64.131 206.265 64.1075L211.638 62.9263C211.738 62.9027 211.844 62.9067 211.942 62.9378C212.041 62.969 212.128 63.026 212.193 63.1023L212.352 63.3033C212.414 63.3716 212.457 63.4539 212.476 63.5424C212.495 63.6309 212.489 63.7224 212.46 63.8083C212.431 63.8942 212.379 63.9714 212.309 64.0326C212.239 64.0938 212.154 64.1369 212.061 64.1577Z" fill="#6DAFA7"/>
<path d="M224.235 69.209C224.235 69.209 223.573 69.5357 222.303 69.209C221.033 68.8823 220.821 68.5808 219.498 68.2541C218.174 67.9274 216.348 68.2792 216.031 68.8069C215.713 69.3347 216.56 69.6614 217.698 69.787C218.836 69.9127 219.365 71.9733 221.191 72.7524C224.235 74.034 226.934 70.1137 224.235 69.209Z" fill="#F4C2C9"/>
<path d="M216.031 68.8066C215.713 69.3344 216.56 69.6611 217.698 69.7867C218.836 69.9124 219.365 71.9731 221.191 72.7521C221.753 72.9992 222.384 73.0696 222.991 72.9531" stroke="#E26E85" stroke-width="1.8" stroke-linecap="round" stroke-linejoin="round"/>
<path d="M226.246 68.0527C226.246 68.0527 224.844 68.9072 224.235 69.2087C225.068 70.0816 225.643 71.1479 225.902 72.2997C226.379 74.285 226.008 75.24 226.008 75.24C226.008 75.24 227.569 75.0892 228.337 74.5615C228.337 74.5615 229.078 73.4055 228.469 71.1438C227.861 68.882 226.246 68.0527 226.246 68.0527Z" fill="white"/>
<path d="M242.866 64.9866C242.624 64.2176 242.193 63.5145 241.608 62.935C241.023 62.3555 240.301 61.9164 239.503 61.6538C238.704 61.3911 237.851 61.3126 237.014 61.4245C236.177 61.5364 235.38 61.8357 234.689 62.2976C233.068 63.3912 231.39 64.4061 229.66 65.3384L225.611 67.4242C225.611 67.4242 227.914 69.5854 228.258 71.9727C228.602 74.3601 228.178 75.1392 228.178 75.1392C228.178 75.1392 234.504 73.6565 240.088 71.0681C241.23 70.527 242.136 69.6205 242.644 68.5081C243.152 67.3957 243.231 66.1487 242.866 64.9866Z" fill="#6DAFA7"/>
<path d="M227.649 73.3045C227.649 73.2448 227.63 73.1865 227.595 73.137C227.56 73.0874 227.511 73.0487 227.453 73.0259C227.395 73.0031 227.331 72.9971 227.269 73.0087C227.208 73.0204 227.151 73.0491 227.107 73.0913C227.062 73.1334 227.032 73.1872 227.02 73.2457C227.008 73.3042 227.014 73.3648 227.038 73.4199C227.062 73.475 227.103 73.5221 227.155 73.5552C227.207 73.5884 227.268 73.6061 227.331 73.6061C227.373 73.6075 227.415 73.6006 227.455 73.586C227.494 73.5713 227.529 73.5491 227.559 73.5208C227.589 73.4926 227.612 73.4588 227.628 73.4215C227.643 73.3843 227.65 73.3445 227.649 73.3045Z" fill="#22272E"/>
<path d="M192.133 119.695L210.844 117.609L210.526 120.826L206.848 121.329L206.477 121.982L192.133 119.695Z" fill="#63737A"/>
<path d="M206.477 121.63L211.347 103.31C211.428 103 211.605 102.719 211.855 102.504C212.104 102.289 212.416 102.15 212.749 102.104L237.759 98.5608C237.883 98.544 238.009 98.5571 238.126 98.5989C238.244 98.6407 238.348 98.7098 238.43 98.8C238.511 98.8901 238.568 98.9983 238.594 99.1146C238.62 99.2309 238.615 99.3516 238.579 99.4655L233.471 115.876C233.382 116.153 233.217 116.403 232.995 116.601C232.772 116.8 232.498 116.939 232.201 117.006L207.351 122.51C207.226 122.533 207.097 122.526 206.976 122.49C206.854 122.453 206.745 122.387 206.658 122.299C206.571 122.211 206.508 122.104 206.477 121.987C206.445 121.87 206.445 121.747 206.477 121.63Z" fill="#22272E"/>
<path d="M225.611 109.919C225.347 110.824 224.473 111.703 223.6 111.879C222.727 112.055 222.25 111.452 222.515 110.547C222.78 109.643 223.653 108.763 224.526 108.587C225.4 108.411 225.876 109.014 225.611 109.919Z" fill="#63737A"/>
<path d="M206.847 122.435C206.768 122.384 195.917 121.027 192.9 120.625C192.687 120.603 192.489 120.505 192.348 120.352C192.206 120.198 192.129 120 192.133 119.796V119.695L206.847 121.329V122.435Z" fill="#22272E"/>
<path d="M229.607 87.9054H237.758C237.85 87.9062 237.94 87.9247 238.023 87.9598C238.106 87.9948 238.181 88.0456 238.243 88.1092C238.305 88.1727 238.353 88.2476 238.383 88.3292C238.414 88.4108 238.426 88.4975 238.42 88.5839L237.997 93.434C237.983 93.6389 237.893 93.8324 237.743 93.9798C237.592 94.1272 237.391 94.2188 237.176 94.2382L228.972 95.0926C228.878 95.1024 228.783 95.0925 228.693 95.0635C228.604 95.0345 228.522 94.9871 228.454 94.9248C228.386 94.8624 228.333 94.7866 228.299 94.7027C228.265 94.6188 228.251 94.5289 228.258 94.4392L228.707 88.7347C228.709 88.6241 228.734 88.515 228.78 88.4134C228.826 88.3119 228.893 88.22 228.976 88.143C229.06 88.066 229.159 88.0054 229.267 87.9646C229.375 87.9238 229.491 87.9037 229.607 87.9054Z" stroke="#6DAFA7" stroke-width="1.8" stroke-linecap="round" stroke-linejoin="round"/>
<path d="M229.078 88.0811L233.842 90.5187C233.996 90.5934 234.17 90.626 234.343 90.6126C234.516 90.5993 234.681 90.5407 234.821 90.4433L238.208 88.0811" stroke="#6DAFA7" stroke-width="1.8" stroke-linecap="round" stroke-linejoin="round"/>
<path d="M183.797 63.4541L182.95 64.3337C182.886 64.4033 182.851 64.4925 182.851 64.585C182.851 64.6774 182.886 64.7667 182.95 64.8363C183.01 64.8957 183.089 64.9352 183.175 64.9488C183.261 64.9624 183.349 64.9493 183.426 64.9117L184.432 64.3337L183.797 63.4541Z" fill="#22272E"/>
<path d="M191.524 65.5898L191.762 66.771C191.777 66.8603 191.759 66.9518 191.711 67.0297C191.663 67.1076 191.587 67.1672 191.498 67.1982C191.41 67.2248 191.315 67.2189 191.231 67.1816C191.148 67.1443 191.082 67.0784 191.048 66.9971L190.519 65.9919L191.524 65.5898Z" fill="#22272E"/>
<path d="M188.693 66.6199C191.879 66.6199 194.462 64.1671 194.462 61.1415C194.462 58.1158 191.879 55.6631 188.693 55.6631C185.506 55.6631 182.923 58.1158 182.923 61.1415C182.923 64.1671 185.506 66.6199 188.693 66.6199Z" fill="#6DAFA7"/>
<path d="M190.471 64.2241C192.264 63.288 192.919 61.1489 191.933 59.4461C190.947 57.7434 188.694 57.1219 186.901 58.058C185.108 58.9941 184.453 61.1333 185.439 62.836C186.425 64.5387 188.678 65.1602 190.471 64.2241Z" fill="#3401C6"/>
<path d="M189.725 62.3984L188.693 61.1419L189.249 59.3828" stroke="#63737A" stroke-width="1.8" stroke-linecap="round" stroke-linejoin="round"/>
<path d="M185.014 55.8392C184.974 55.8523 184.932 55.8574 184.89 55.8543C184.848 55.8511 184.807 55.8397 184.769 55.8209C184.732 55.802 184.699 55.776 184.673 55.7446C184.647 55.7132 184.628 55.6769 184.617 55.6382C184.558 55.2771 184.631 54.9077 184.825 54.5919C185.018 54.276 185.32 54.033 185.68 53.9034C186.04 53.7738 186.436 53.7656 186.801 53.8801C187.166 53.9946 187.479 54.2249 187.687 54.5324C187.711 54.5676 187.725 54.6074 187.73 54.6488C187.734 54.6902 187.729 54.7321 187.713 54.7711C187.698 54.81 187.673 54.8451 187.641 54.8735C187.609 54.9018 187.57 54.9227 187.528 54.9345L185.014 55.8392Z" fill="#6DAFA7"/>
<path d="M194.78 58.5533C194.806 58.5846 194.839 58.6104 194.877 58.6288C194.915 58.6473 194.956 58.658 194.999 58.6604C195.041 58.6628 195.083 58.6567 195.123 58.6426C195.163 58.6284 195.199 58.6066 195.229 58.5784C195.484 58.3053 195.632 57.9571 195.649 57.5925C195.665 57.2278 195.548 56.8691 195.318 56.5768C195.088 56.2844 194.758 56.0764 194.385 55.9879C194.013 55.8993 193.619 55.9355 193.271 56.0905C193.234 56.1079 193.201 56.1328 193.175 56.1635C193.149 56.1942 193.13 56.2299 193.12 56.2682C193.11 56.3065 193.109 56.3464 193.116 56.3851C193.124 56.4239 193.141 56.4606 193.165 56.4926L194.78 58.5533Z" fill="#6DAFA7"/>
<path d="M191.313 55.2611L189.804 54.859C189.745 54.8425 189.69 54.8152 189.642 54.7785C189.594 54.7418 189.554 54.6965 189.524 54.6451C189.495 54.5937 189.476 54.5374 189.47 54.4792C189.463 54.421 189.469 54.3622 189.486 54.3061C189.504 54.25 189.533 54.1976 189.571 54.1521C189.61 54.1065 189.658 54.0687 189.712 54.0406C189.766 54.0126 189.825 53.995 189.886 53.9888C189.948 53.9826 190.01 53.988 190.069 54.0045L191.577 54.4066C191.636 54.4231 191.691 54.4504 191.739 54.4871C191.787 54.5238 191.827 54.5692 191.857 54.6205C191.886 54.6719 191.905 54.7282 191.911 54.7864C191.918 54.8446 191.912 54.9034 191.895 54.9595C191.857 55.0714 191.776 55.1652 191.668 55.2214C191.559 55.2776 191.432 55.2918 191.313 55.2611Z" fill="#6DAFA7"/>
<path d="M190.078 54.6408L189.665 55.9922L190.757 56.2937L191.171 54.9423L190.078 54.6408Z" fill="#6DAFA7"/>
<path d="M94.1091 97.6814L94.3473 99.9934C94.3593 100.108 94.3324 100.224 94.2706 100.323C94.2087 100.423 94.115 100.501 94.0032 100.546C93.6437 100.702 93.3438 100.959 93.1447 101.283C92.9456 101.607 92.8573 101.982 92.8917 102.356L93.1828 104.919C93.2206 105.295 93.3852 105.65 93.6522 105.931C93.9192 106.212 94.2743 106.403 94.6648 106.477C94.7821 106.504 94.8879 106.564 94.9683 106.649C95.0487 106.734 95.0998 106.841 95.1147 106.954L95.3529 109.266C95.3648 109.363 95.3485 109.46 95.3059 109.549C95.2633 109.637 95.1961 109.712 95.1115 109.767C95.0268 109.821 94.9281 109.853 94.826 109.857C94.7239 109.862 94.6224 109.84 94.5325 109.794L93.9503 109.518C93.32 109.216 92.7806 108.767 92.3826 108.213C91.9845 107.659 91.7409 107.019 91.6743 106.351L91.1185 101.25C91.0468 100.582 91.1521 99.9086 91.4249 99.2897C91.6976 98.6708 92.1291 98.1265 92.68 97.7065L93.2093 97.3044C93.2896 97.2481 93.3842 97.2129 93.4834 97.2025C93.5826 97.192 93.683 97.2067 93.7744 97.245C93.8657 97.2832 93.9448 97.3438 94.0036 97.4204C94.0624 97.497 94.0988 97.5871 94.1091 97.6814Z" fill="#22272E"/>
<path d="M106.468 48.8536C106.944 51.9195 105.145 54.7089 102.128 55.111C98.6609 55.5634 95.0352 52.7237 94.5589 48.8033C94.109 44.9584 96.9407 42.3197 100.408 42.7721C103.451 43.1742 106.018 45.838 106.468 48.8536Z" fill="#3401C6" fill-opacity="0.49"/>
<path d="M107.712 48.3259C108.188 51.4923 106.362 54.3823 103.239 54.7843C99.6401 55.2618 95.9086 52.3216 95.4322 48.2756C94.9558 44.305 97.8934 41.591 101.466 42.0433C104.589 42.4705 107.236 45.2349 107.712 48.3259Z" fill="#3401C6"/>
<path d="M103.372 46.5659C103.478 47.345 102.975 47.9481 102.234 47.9481C101.493 47.9481 100.725 47.2696 100.619 46.4654C100.514 45.6613 101.069 45.0581 101.837 45.1084C102.225 45.1592 102.585 45.3291 102.862 45.5922C103.139 45.8553 103.318 46.1973 103.372 46.5659Z" fill="#22272E"/>
<path d="M104.086 51.4921L101.36 51.668C100.699 51.7183 100.09 51.1906 99.9841 50.4869C99.7723 48.954 100.831 47.7477 102.234 47.7728C103.557 47.798 104.748 48.9288 104.959 50.2859C105.012 50.9393 104.642 51.467 104.086 51.4921Z" fill="#22272E"/>
<path d="M222.171 93.6348C222.031 93.4852 221.849 93.3784 221.645 93.3278C221.442 93.2772 221.228 93.2852 221.029 93.3508C220.831 93.4163 220.657 93.5365 220.531 93.696C220.405 93.8555 220.331 94.0471 220.32 94.2464C220.309 94.4456 220.36 94.6435 220.468 94.8149C220.575 94.9863 220.734 95.1234 220.924 95.2088C221.114 95.2941 221.327 95.3238 221.534 95.2942C221.742 95.2645 221.936 95.1767 222.091 95.0421C222.196 94.9563 222.282 94.8512 222.343 94.733C222.405 94.6148 222.44 94.4861 222.447 94.3546C222.455 94.2231 222.434 94.0915 222.387 93.9678C222.339 93.8441 222.265 93.7308 222.171 93.6348Z" fill="#22272E"/>
<path d="M220.795 91.3483L220.609 91.1472C220.313 90.8437 219.902 90.663 219.467 90.6442C219.031 90.6254 218.605 90.77 218.28 91.0467C217.961 91.3284 217.771 91.7182 217.751 92.1319C217.731 92.5456 217.883 92.9501 218.175 93.2582L218.36 93.4592C218.575 93.6797 218.73 93.9473 218.81 94.2383C218.863 94.4644 218.942 94.7157 218.995 94.967C219.028 95.0897 219.095 95.2019 219.188 95.2929C219.281 95.3838 219.397 95.4502 219.525 95.4857C219.653 95.5212 219.789 95.5244 219.918 95.4952C220.048 95.4659 220.168 95.4052 220.265 95.3189L221.43 94.3136L222.594 93.3084C222.692 93.2228 222.765 93.1146 222.806 92.9943C222.847 92.874 222.855 92.7457 222.828 92.6218C222.801 92.4979 222.742 92.3827 222.654 92.2872C222.567 92.1918 222.455 92.1194 222.33 92.0771C222.065 92.0017 221.827 91.9012 221.589 91.8258C221.284 91.7371 221.009 91.5722 220.795 91.3483Z" fill="#6DAFA7"/>
<path d="M199.781 95.2941C200.163 97.3896 200.163 99.5315 199.781 101.627L208.356 99.8678C208.356 99.8678 206.45 96.8522 205.948 94.0879L199.781 95.2941Z" fill="#22272E"/>
<path d="M199.967 96.6003L206.265 95.3438" stroke="#63737A" stroke-width="1.8" stroke-linecap="round" stroke-linejoin="round"/>
<path d="M201.449 97.7814L205.524 96.8516" stroke="#63737A" stroke-width="1.8" stroke-linecap="round" stroke-linejoin="round"/>
<path d="M201.528 98.9879L204.254 98.3848" stroke="#63737A" stroke-width="1.8" stroke-linecap="round" stroke-linejoin="round"/>
<path d="M220.054 122.937L225.823 121.706C225.823 121.706 225.902 124.219 229.978 125.702C229.978 125.702 225.453 128.969 224.05 129.823C224.076 129.798 220.689 128.139 220.054 122.937Z" fill="#6DAFA7"/>
<path d="M220.397 124.596L226.193 122.812" stroke="#22272E" stroke-width="1.8" stroke-linecap="round" stroke-linejoin="round"/>
<path d="M222.303 125.626L225.929 124.043" stroke="#22272E" stroke-width="1.8" stroke-linecap="round" stroke-linejoin="round"/>
<path d="M222.912 126.681L226.537 124.821" stroke="#22272E" stroke-width="1.8" stroke-linecap="round" stroke-linejoin="round"/>
<path d="M223.706 127.687L225.796 126.48" stroke="#22272E" stroke-width="1.8" stroke-linecap="round" stroke-linejoin="round"/>
<path d="M95.538 83.7587C95.042 83.8582 94.5316 83.8752 94.0295 83.809L94.5059 83.1053C93.4738 83.1305 90.9861 81.8488 90.7214 80.6677C90.6886 80.5341 90.6978 80.3943 90.7479 80.2656V80.2405C91.1449 79.4866 93.2356 79.6625 94.7705 81.0949C96.5966 82.7786 95.538 83.7587 95.538 83.7587Z" fill="#B8D8C7"/>
<path d="M94.5325 83.1061L94.0562 83.8097C93.3111 83.7145 92.5923 83.4842 91.939 83.1312C91.174 82.7565 90.567 82.1447 90.2188 81.3972C90.5099 80.7689 90.7216 80.3417 90.7745 80.2412C90.7255 80.3701 90.7163 80.5096 90.748 80.6433C91.0127 81.8495 93.5004 83.1312 94.5325 83.1061Z" fill="#6DAFA7"/>
<path d="M79.818 90.7205C79.818 90.7205 81.0354 91.2482 82.1734 91.0974C83.3113 90.9467 85.5344 90.3435 85.9843 90.5697C86.4342 90.7959 87.2017 90.821 86.9635 91.5498C86.7253 92.2786 86.2754 93.133 85.2697 93.1832C84.2641 93.2335 83.2584 93.9874 81.5911 93.5351C79.9238 93.0827 78.9446 92.8566 78.8917 92.2283C78.8388 91.6 79.818 90.7205 79.818 90.7205Z" fill="#F4C2C9"/>
<path d="M95.5382 83.7594C95.1148 84.9406 89.5836 91.8514 86.9636 95.4701C84.3436 99.0889 79.8975 109.342 77.6744 108.915C75.4514 108.488 72.6991 106.427 73.1754 105.246C73.6518 104.065 79.2888 100.697 83.5761 94.8921C87.8634 89.0871 87.7576 85.0662 89.0543 81.7742C89.6101 80.3669 90.0071 80.4674 90.0071 80.4674C90.0051 80.7939 90.068 81.1179 90.1923 81.4223C90.523 82.1807 91.135 82.7976 91.9125 83.1563C92.5659 83.5093 93.2847 83.7397 94.0297 83.8348C94.533 83.9023 95.0452 83.8766 95.5382 83.7594Z" fill="white"/>
<path d="M86.0107 94.1634C86.0107 94.1634 87.0693 92.3037 87.334 91.1729" stroke="#B8D8C7" stroke-width="1.8" stroke-linecap="round" stroke-linejoin="round"/>
<path d="M87.0166 94.414C87.0166 94.414 87.7312 93.1324 88.1017 92.8057" stroke="#B8D8C7" stroke-width="1.8" stroke-linecap="round" stroke-linejoin="round"/>
<path d="M83.126 99.2891C82.8284 100.025 82.4746 100.739 82.0674 101.425" stroke="#B8D8C7" stroke-width="1.8" stroke-linecap="round" stroke-linejoin="round"/>
<path d="M81.6439 98.9375C80.8764 99.9985 79.9491 100.947 78.8916 101.752" stroke="#B8D8C7" stroke-width="1.8" stroke-linecap="round" stroke-linejoin="round"/>
<path d="M83.8937 92.2785C84.7154 92.7865 85.5731 93.2399 86.4607 93.6355C87.4135 93.9874 88.6309 93.6104 88.7367 93.6104C88.8426 93.6104 89.3454 94.3643 88.8955 94.892C88.4456 95.4198 87.9428 95.4952 87.8898 95.6711C87.8369 95.847 87.9692 96.8522 87.6781 97.204C87.387 97.5558 86.8313 97.7569 86.646 97.9831C86.4607 98.2092 86.2755 99.3401 85.9844 99.516C85.6933 99.6919 85.3228 100.27 84.5817 100.37C83.8407 100.471 80.9296 99.3652 78.2302 97.3799C77.3572 96.7107 76.4072 96.1375 75.3984 95.6711C75.3984 95.6711 76.5894 90.7204 78.7595 91.1728C80.9296 91.6251 83.8937 92.2785 83.8937 92.2785Z" fill="#F4C2C9"/>
<path d="M83.8936 92.2783C84.7153 92.7863 85.573 93.2397 86.4606 93.6353C87.4134 93.9872 88.6308 93.6102 88.7366 93.6102" stroke="#E26E85" stroke-width="1.8" stroke-linecap="round" stroke-linejoin="round"/>
<path d="M77.3566 89.0616C77.4497 88.9966 77.5634 88.9636 77.6789 88.9682C77.7943 88.9728 77.9047 89.0146 77.9918 89.0867C78.3358 89.338 79.6326 90.3181 79.7914 90.7202C79.9502 91.1223 79.0768 93.6102 77.6742 95.1431C76.2716 96.6761 75.5306 96.6761 75.4512 96.6509C75.3718 96.6258 73.4134 95.7714 73.1487 95.4447C73.0715 95.3495 73.0172 95.2394 72.9898 95.1222C72.9623 95.0049 72.9624 94.8834 72.9899 94.7662C72.9899 94.7662 76.7215 89.0365 77.3566 89.0616Z" fill="#6DAFA7"/>
<path d="M60.2341 80.3665C59.3647 81.3774 58.9328 82.6645 59.0262 83.9666C59.1196 85.2687 59.7312 86.4883 60.7369 87.3779C61.3456 87.9056 62.0337 88.5087 62.8012 89.1621C66.9297 92.6803 73.3342 94.8667 73.3342 94.8667C76.8275 93.3337 77.3568 89.0616 77.3568 89.0616C74.2075 87.1768 71.0847 83.6586 68.7822 80.5927C68.295 79.9601 67.6618 79.4417 66.9311 79.0773C66.2004 78.7129 65.3916 78.5121 64.5665 78.4903C63.7415 78.4684 62.9221 78.6262 62.1712 78.9514C61.4203 79.2766 60.7576 79.7607 60.2341 80.3665Z" fill="#3401C6"/>
<path d="M87.916 95.6963C87.5459 95.8675 87.1547 95.9941 86.7516 96.0732C86.3905 96.1011 86.0276 96.1011 85.6665 96.0732" stroke="#E26E85" stroke-width="1.8" stroke-linecap="round" stroke-linejoin="round"/>
<path d="M86.8047 97.9072C86.5794 98.0718 86.3165 98.1837 86.0372 98.2339C85.7541 98.2599 85.4692 98.2075 85.2168 98.0831" stroke="#E26E85" stroke-width="1.8" stroke-linecap="round" stroke-linejoin="round"/>
<path d="M85.7727 99.7421C85.7727 99.7421 85.1375 99.9432 84.7935 99.6416" stroke="#E26E85" stroke-width="1.8" stroke-linecap="round" stroke-linejoin="round"/>
<path d="M189.831 124.646C184.776 124.746 176.836 126.555 172.02 128.415C169.263 129.474 166.569 130.674 163.948 132.009C163.948 132.009 165.086 131.406 166.436 133.868C167.785 136.331 167.309 139.196 167.309 139.196C167.997 139.02 184.405 138.543 189.645 137.889C194.885 137.236 200.946 135.426 200.575 130.576C200.205 125.726 195.706 124.394 189.54 123.314C183.373 122.233 179.933 122.685 179.562 122.585C178.723 122.352 177.964 121.909 177.366 121.303C176.731 120.574 176.069 118.589 176.069 118.589C176.069 118.589 160.084 117.634 158.47 120.197C156.855 122.761 164.107 130.099 164.107 130.099L189.831 124.646Z" fill="#22272E"/>
<path d="M151.721 118.288C151.721 118.288 150.848 120.097 150.53 120.751C150.213 121.404 142.882 121.655 139.6 121.706C136.319 121.756 129.888 123.012 129.385 127.511C128.803 132.637 133.328 135.025 141.4 135.577C150.478 136.206 158.893 136.005 160.666 136.181C162.44 136.356 167.336 134.271 167.891 132.336C168.447 130.401 176.148 128.918 176.148 128.918C176.148 128.918 177.842 120.876 175.063 119.268C172.285 117.66 151.721 118.288 151.721 118.288Z" fill="#22272E"/>
<path d="M167.892 130.527C167.892 130.527 152.859 122.309 140.924 122.787" stroke="#63737A" stroke-width="1.8" stroke-linecap="round" stroke-linejoin="round"/>
<path d="M163.948 132.034C163.948 132.034 163.207 132.335 163.631 134.748C164.054 137.16 166.383 139.724 167.309 139.221C168.236 138.718 167.759 134.346 166.701 132.888C165.642 131.431 163.948 132.034 163.948 132.034Z" fill="#22272E"/>
<path d="M162.228 132.838C162.228 132.838 160.772 134.522 160.11 135C159.449 135.477 156.485 135.678 155.4 137.286C154.315 138.895 156.802 142.589 158.814 141.986C158.258 142.312 157.782 142.614 157.411 142.84C155.611 143.996 152.33 145.73 150.001 143.192C148.042 141.031 148.731 138.417 150.16 136.683C151.589 134.949 155.267 134.748 156.114 134.522C156.961 134.296 158.893 132.964 159.74 132.487C160.454 132.084 160.984 132.612 162.228 132.838Z" fill="#6DAFA7"/>
<path d="M167.362 138.392C167.256 138.417 165.351 138.718 164.557 138.869C163.922 138.995 160.905 140.679 158.787 141.96C156.776 142.563 154.288 138.869 155.373 137.261C156.458 135.652 159.423 135.451 160.084 134.974C160.746 134.496 162.201 132.813 162.201 132.813L162.81 132.888C164.504 133.014 165.377 132.461 165.377 132.461C165.795 132.862 166.136 133.33 166.383 133.843C167.336 135.527 167.415 137.361 167.362 138.392Z" fill="#F4C2C9"/>
<path d="M189.831 124.646C184.776 124.746 176.837 126.555 172.02 128.415C169.263 129.474 166.569 130.674 163.948 132.009" stroke="#63737A" stroke-width="1.8" stroke-linecap="round" stroke-linejoin="round"/>
<path d="M97.4699 124.998C97.6988 124.902 97.9453 124.851 98.1951 124.847C98.4449 124.843 98.6931 124.885 98.9255 124.972C100.355 125.425 100.831 128.415 100.116 130.275C99.4019 132.135 97.814 132.059 97.2847 131.531" stroke="#63737A" stroke-width="1.8" stroke-linecap="round" stroke-linejoin="round"/>
<path d="M199.649 127.687C199.649 127.687 198.326 126.254 196.765 128.038C195.044 129.973 195.944 133.24 197.32 134.019C198.697 134.798 199.49 134.019 199.49 134.019" stroke="#63737A" stroke-width="1.8" stroke-linecap="round" stroke-linejoin="round"/>
<path d="M108.876 92.2276C108.876 92.2823 108.859 92.3357 108.827 92.3812C108.795 92.4266 108.75 92.4621 108.696 92.483C108.643 92.5039 108.585 92.5094 108.528 92.4987C108.472 92.4881 108.42 92.4617 108.379 92.4231C108.339 92.3844 108.311 92.3352 108.3 92.2815C108.288 92.2279 108.294 92.1723 108.316 92.1218C108.338 92.0713 108.375 92.0281 108.423 91.9978C108.471 91.9674 108.527 91.9512 108.585 91.9512C108.662 91.9518 108.736 91.9812 108.79 92.0329C108.845 92.0846 108.875 92.1545 108.876 92.2276Z" stroke="#22272E" stroke-width="1.8" stroke-linecap="round" stroke-linejoin="round"/>
<path d="M114.646 87.5281C114.09 89.2872 113.508 90.0411 113.561 91.6494C112.611 91.9278 111.603 91.9771 110.628 91.7928C109.653 91.6085 108.742 91.1965 107.977 90.594C108.135 89.9155 108.215 89.3877 108.109 89.061C107.791 87.8548 106.071 87.3019 104.88 85.7941C103.689 84.2863 103.583 81.6225 104.166 81.2958C104.43 81.145 104.695 81.1953 105.092 82.4518C105.255 82.9673 105.477 83.4644 105.754 83.9345C105.198 82.7282 104.96 78.7576 106.495 79.3608C106.997 79.5618 106.415 80.4162 107.024 81.9492C107.303 82.7685 107.862 83.476 108.612 83.9596C108.52 83.222 108.697 82.4768 109.115 81.8487C109.697 81.0696 111.179 80.1901 111.443 81.0194C111.708 81.8487 110.385 82.1251 110.279 83.1554C110.12 84.3868 111.576 85.3418 112.555 84.5376C113.534 83.7334 112.978 82.8287 112.555 82.2507C112.132 81.6727 111.47 80.9691 111.946 80.6424C112.423 80.3157 113.614 80.6927 114.46 82.0748C115.307 83.457 115.202 85.769 114.646 87.5281Z" fill="#F4C2C9"/>
<path d="M153.018 105.547C153.018 105.547 147.064 112.684 143.147 114.292C139.23 115.9 136.583 114.769 135.816 110.874C135.049 106.979 137.483 100.018 138.542 97.4548C139.309 95.5449 140.527 92.5292 140.977 90.6193C141.746 91.2142 142.657 91.6213 143.631 91.8053C144.604 91.9892 145.61 91.9444 146.561 91.6748C146.587 93.2077 145.846 98.862 145.767 99.3898C145.793 99.2139 146.111 98.3846 148.334 95.4192C150.901 92.0266 153.468 90.5439 153.468 90.5439C153.468 90.5439 155.638 91.524 156.273 96.1229C156.908 100.722 153.018 105.547 153.018 105.547Z" fill="#6DAFA7"/>
<path d="M112.767 99.3896C112.767 99.3896 112.529 105.823 111.655 107.909" stroke="#22272E" stroke-width="1.8" stroke-linecap="round" stroke-linejoin="round"/>
<path d="M108.585 83.9854C108.645 84.3775 108.79 84.7539 109.009 85.0911" stroke="#E26E85" stroke-width="1.8" stroke-linecap="round" stroke-linejoin="round"/>
<path d="M107.368 92.6045C107.368 92.6045 108.876 94.6652 113.402 94.062" stroke="#22272E" stroke-width="1.8" stroke-linecap="round" stroke-linejoin="round"/>
<path d="M103.583 113.06C103.583 113.06 102.895 110.824 105.436 110.296C107.977 109.768 111.073 113.261 109.115 114.644" stroke="#22272E" stroke-width="1.8" stroke-linecap="round" stroke-linejoin="round"/>
<path d="M105.727 83.9854C105.961 84.4423 106.274 84.8586 106.653 85.2167C106.918 85.468 107.288 85.7193 107.447 86.046" stroke="#E26E85" stroke-width="1.8" stroke-linecap="round" stroke-linejoin="round"/>
<path d="M170.326 68.7814C173.343 69.5101 174.772 71.1436 174.64 75.265C174.507 79.3863 173.925 80.869 175.99 83.1558C178.054 85.4427 178.61 88.6594 174.693 90.6949C170.776 92.7305 162.201 93.2582 157.94 90.6949C153.68 88.1316 153.177 85.3924 154.447 82.7035C155.717 80.0146 159.105 78.2555 158.364 76.3204C157.623 74.3854 158.523 76.4963 158.523 76.4963C157.821 75.9398 157.27 75.232 156.916 74.4319C156.561 73.6319 156.413 72.7629 156.485 71.8975C156.644 68.8316 160.613 67.6756 162.678 67.5751C163.736 67.5249 164.874 68.1531 166.436 68.4044C167.997 68.6055 169.559 68.6055 170.326 68.7814Z" fill="#22272E"/>
<path d="M164.001 88.333C164.001 88.333 158.284 88.6346 154.95 89.7655C151.615 90.8963 152.224 93.4093 151.8 96.048C151.377 98.6867 148.651 101.376 150.027 104.969C151.403 108.563 152.753 110.598 152.039 113.363C151.324 116.127 150.662 117.509 150.768 118.288C150.874 119.067 154.685 121.455 156.141 121.932C157.596 122.41 160.428 120.5 160.428 120.5C160.428 120.5 161.884 122.309 164.001 122.711C166.118 123.113 174.693 121.027 176.651 118.942C175.843 117.329 175.392 115.575 175.328 113.79C175.275 110.975 176.995 107.482 177.63 105.547C178.265 103.612 181.838 96.1485 180.435 93.6606C179.43 91.8764 171.914 87.8556 164.001 88.333Z" fill="#3401C6"/>
<mask id="mask2_16_494" style="mask-type:luminance" maskUnits="userSpaceOnUse" x="150" y="88" width="31" height="34">
<path d="M164.304 88.0386C164.304 88.0386 158.609 88.336 155.287 89.4516C151.965 90.5671 152.572 93.046 152.15 95.6489C151.728 98.2518 149.012 100.904 150.383 104.449C151.754 107.994 153.099 110.002 152.387 112.729C151.675 115.456 151.016 116.819 151.122 117.588C151.227 118.356 155.024 120.711 156.474 121.182C157.924 121.653 160.745 119.769 160.745 119.769C160.745 119.769 162.195 121.554 164.304 121.951C166.414 122.347 174.956 120.29 176.907 118.232C176.102 116.641 175.653 114.911 175.589 113.15C175.536 110.374 177.25 106.928 177.883 105.019C178.516 103.111 182.075 95.7481 180.678 93.2939C179.676 91.5339 172.188 87.5676 164.304 88.0386Z" fill="white"/>
</mask>
<g mask="url(#mask2_16_494)">
<path d="M151 118.482L151.357 118.862C151.474 118.993 151.529 119.159 151.509 119.325C151.489 119.491 151.396 119.643 151.25 119.748L150.822 120.065C150.675 120.169 150.487 120.217 150.3 120.2C150.113 120.182 149.942 120.099 149.823 119.97L149.466 119.59C149.349 119.46 149.294 119.293 149.314 119.128C149.334 118.962 149.427 118.809 149.573 118.704L150.001 118.388C150.071 118.33 150.154 118.287 150.244 118.26C150.335 118.234 150.43 118.225 150.525 118.234C150.62 118.243 150.711 118.27 150.793 118.313C150.875 118.355 150.945 118.413 151 118.482Z" fill="#63C6A2"/>
<path d="M151.749 112.755L152.106 113.135C152.223 113.265 152.278 113.431 152.258 113.597C152.238 113.763 152.145 113.915 151.999 114.021L151.571 114.337C151.424 114.441 151.236 114.49 151.049 114.472C150.862 114.454 150.691 114.372 150.572 114.242L150.215 113.863C150.098 113.732 150.043 113.566 150.063 113.4C150.083 113.234 150.176 113.082 150.322 112.976L150.75 112.66C150.897 112.556 151.085 112.507 151.272 112.525C151.459 112.543 151.63 112.625 151.749 112.755Z" fill="#63C6A2"/>
<path d="M152.498 107.026L152.855 107.406C152.972 107.537 153.027 107.703 153.007 107.869C152.987 108.035 152.894 108.187 152.748 108.292L152.32 108.609C152.173 108.713 151.985 108.761 151.798 108.744C151.611 108.726 151.44 108.643 151.321 108.514L150.964 108.134C150.847 108.004 150.792 107.837 150.812 107.671C150.832 107.505 150.925 107.353 151.071 107.248L151.499 106.931C151.646 106.827 151.834 106.779 152.021 106.797C152.208 106.814 152.379 106.897 152.498 107.026Z" fill="#63C6A2"/>
<path d="M156.778 119.084L157.135 119.463C157.252 119.594 157.307 119.76 157.287 119.926C157.267 120.092 157.174 120.244 157.028 120.35L156.6 120.666C156.453 120.77 156.266 120.819 156.079 120.801C155.892 120.783 155.72 120.7 155.601 120.571L155.245 120.191C155.127 120.061 155.072 119.895 155.092 119.729C155.112 119.563 155.206 119.411 155.352 119.305L155.78 118.989C155.851 118.934 155.934 118.893 156.024 118.868C156.114 118.844 156.209 118.835 156.302 118.844C156.396 118.853 156.486 118.879 156.568 118.92C156.65 118.961 156.722 119.017 156.778 119.084Z" fill="#63C6A2"/>
<path d="M157.563 113.356L157.92 113.735C158.037 113.866 158.092 114.032 158.072 114.198C158.052 114.364 157.959 114.516 157.813 114.621L157.385 114.938C157.238 115.042 157.05 115.09 156.863 115.073C156.676 115.055 156.505 114.972 156.386 114.843L156.029 114.463C155.912 114.333 155.857 114.166 155.877 114.001C155.897 113.835 155.99 113.682 156.136 113.577L156.564 113.261C156.711 113.156 156.899 113.108 157.086 113.126C157.273 113.143 157.444 113.226 157.563 113.356Z" fill="#63C6A2"/>
<path d="M158.312 107.628L158.669 108.008C158.787 108.138 158.841 108.304 158.821 108.47C158.801 108.636 158.708 108.788 158.562 108.894L158.134 109.21C157.987 109.314 157.8 109.363 157.613 109.345C157.426 109.327 157.254 109.245 157.135 109.115L156.779 108.736C156.661 108.605 156.607 108.439 156.627 108.273C156.647 108.107 156.74 107.955 156.886 107.849L157.314 107.533C157.461 107.429 157.648 107.38 157.835 107.398C158.022 107.416 158.194 107.499 158.312 107.628Z" fill="#63C6A2"/>
<path d="M162.593 119.685L162.949 120.065C163.067 120.195 163.122 120.361 163.102 120.527C163.082 120.693 162.988 120.845 162.842 120.951L162.414 121.267C162.267 121.371 162.08 121.42 161.893 121.402C161.706 121.384 161.534 121.302 161.416 121.172L161.059 120.792C160.942 120.662 160.887 120.496 160.907 120.33C160.927 120.164 161.02 120.012 161.166 119.906L161.594 119.59C161.666 119.536 161.749 119.495 161.839 119.471C161.928 119.446 162.023 119.438 162.116 119.447C162.21 119.456 162.3 119.481 162.382 119.522C162.464 119.563 162.536 119.619 162.593 119.685Z" fill="#63C6A2"/>
<path d="M163.342 113.958L163.698 114.338C163.816 114.468 163.871 114.635 163.851 114.801C163.831 114.967 163.737 115.119 163.591 115.224L163.163 115.541C163.016 115.645 162.829 115.693 162.642 115.675C162.455 115.658 162.283 115.575 162.165 115.446L161.808 115.066C161.691 114.935 161.636 114.769 161.656 114.603C161.676 114.437 161.769 114.285 161.915 114.18L162.343 113.863C162.415 113.809 162.498 113.769 162.588 113.744C162.677 113.72 162.772 113.711 162.865 113.72C162.959 113.729 163.049 113.755 163.131 113.796C163.213 113.837 163.285 113.892 163.342 113.958Z" fill="#63C6A2"/>
<path d="M164.091 108.23L164.448 108.609C164.565 108.74 164.62 108.906 164.6 109.072C164.58 109.238 164.486 109.39 164.341 109.495L163.912 109.812C163.766 109.916 163.578 109.965 163.391 109.947C163.204 109.929 163.032 109.846 162.914 109.717L162.557 109.337C162.44 109.207 162.385 109.041 162.405 108.875C162.425 108.709 162.518 108.556 162.664 108.451L163.092 108.135C163.239 108.03 163.426 107.982 163.613 108C163.801 108.017 163.972 108.1 164.091 108.23Z" fill="#63C6A2"/>
<path d="M168.407 120.287L168.763 120.667C168.881 120.797 168.936 120.964 168.915 121.129C168.895 121.295 168.802 121.448 168.656 121.553L168.228 121.869C168.081 121.974 167.894 122.022 167.707 122.004C167.52 121.987 167.348 121.904 167.23 121.774L166.873 121.395C166.755 121.264 166.701 121.098 166.721 120.932C166.741 120.766 166.834 120.614 166.98 120.509L167.408 120.192C167.555 120.088 167.742 120.04 167.929 120.057C168.116 120.075 168.288 120.158 168.407 120.287Z" fill="#63C6A2"/>
<path d="M169.156 114.559L169.512 114.938C169.63 115.069 169.685 115.235 169.665 115.401C169.644 115.567 169.551 115.719 169.405 115.824L168.977 116.141C168.83 116.245 168.643 116.294 168.456 116.276C168.269 116.258 168.097 116.175 167.979 116.046L167.622 115.666C167.504 115.536 167.45 115.37 167.47 115.204C167.49 115.038 167.583 114.885 167.729 114.78L168.157 114.464C168.304 114.36 168.491 114.311 168.678 114.329C168.865 114.347 169.037 114.429 169.156 114.559Z" fill="#63C6A2"/>
<path d="M169.905 108.862L170.262 109.242C170.379 109.372 170.434 109.539 170.414 109.705C170.394 109.871 170.301 110.023 170.155 110.128L169.727 110.445C169.58 110.549 169.393 110.597 169.206 110.58C169.018 110.562 168.847 110.479 168.728 110.35L168.371 109.97C168.254 109.84 168.199 109.673 168.219 109.507C168.239 109.341 168.333 109.189 168.478 109.084L168.907 108.767C168.976 108.71 169.059 108.667 169.15 108.64C169.24 108.614 169.336 108.605 169.43 108.614C169.525 108.623 169.616 108.65 169.698 108.692C169.78 108.735 169.851 108.793 169.905 108.862Z" fill="#63C6A2"/>
<path d="M174.186 120.887L174.542 121.267C174.66 121.398 174.714 121.564 174.694 121.73C174.674 121.896 174.581 122.048 174.435 122.153L174.007 122.47C173.86 122.574 173.673 122.622 173.486 122.605C173.299 122.587 173.127 122.504 173.008 122.375L172.652 121.995C172.534 121.865 172.48 121.698 172.5 121.532C172.52 121.366 172.613 121.214 172.759 121.109L173.187 120.792C173.258 120.738 173.341 120.697 173.431 120.672C173.521 120.647 173.616 120.639 173.709 120.648C173.803 120.657 173.894 120.683 173.975 120.724C174.057 120.765 174.129 120.821 174.186 120.887Z" fill="#63C6A2"/>
<path d="M174.97 115.16L175.327 115.54C175.444 115.67 175.499 115.837 175.479 116.003C175.459 116.168 175.366 116.321 175.22 116.426L174.792 116.742C174.645 116.847 174.458 116.895 174.27 116.877C174.083 116.86 173.912 116.777 173.793 116.648L173.436 116.268C173.319 116.137 173.264 115.971 173.284 115.805C173.304 115.639 173.397 115.487 173.543 115.382L173.971 115.065C174.118 114.961 174.306 114.913 174.493 114.93C174.68 114.948 174.851 115.031 174.97 115.16Z" fill="#63C6A2"/>
<path d="M175.719 109.464L176.076 109.844C176.193 109.974 176.248 110.14 176.228 110.306C176.208 110.472 176.115 110.624 175.969 110.73L175.541 111.046C175.394 111.15 175.207 111.199 175.019 111.181C174.832 111.163 174.661 111.081 174.542 110.951L174.185 110.572C174.068 110.441 174.013 110.275 174.033 110.109C174.053 109.943 174.147 109.791 174.292 109.685L174.72 109.369C174.867 109.265 175.055 109.216 175.242 109.234C175.429 109.252 175.601 109.334 175.719 109.464Z" fill="#63C6A2"/>
<path d="M180 121.489L180.356 121.868C180.474 121.999 180.528 122.165 180.508 122.331C180.488 122.497 180.395 122.649 180.249 122.754L179.821 123.071C179.674 123.175 179.487 123.223 179.3 123.206C179.113 123.188 178.941 123.105 178.822 122.976L178.466 122.596C178.348 122.466 178.294 122.299 178.314 122.134C178.334 121.968 178.427 121.815 178.573 121.71L179.001 121.394C179.072 121.34 179.156 121.299 179.245 121.274C179.335 121.25 179.43 121.242 179.523 121.251C179.617 121.259 179.707 121.285 179.789 121.326C179.871 121.367 179.942 121.422 180 121.489Z" fill="#63C6A2"/>
<path d="M180.749 115.762L181.105 116.142C181.223 116.272 181.277 116.438 181.257 116.604C181.237 116.77 181.144 116.922 180.998 117.028L180.57 117.344C180.423 117.448 180.236 117.497 180.049 117.479C179.862 117.461 179.69 117.379 179.571 117.249L179.215 116.869C179.097 116.739 179.043 116.573 179.063 116.407C179.083 116.241 179.176 116.089 179.322 115.983L179.75 115.667C179.897 115.563 180.084 115.514 180.271 115.532C180.458 115.55 180.63 115.632 180.749 115.762Z" fill="#63C6A2"/>
<path d="M181.498 110.065L181.855 110.445C181.972 110.575 182.027 110.742 182.007 110.907C181.987 111.073 181.894 111.226 181.748 111.331L181.32 111.647C181.173 111.752 180.985 111.8 180.798 111.782C180.611 111.765 180.44 111.682 180.321 111.552L179.964 111.173C179.847 111.042 179.792 110.876 179.812 110.71C179.832 110.544 179.925 110.392 180.071 110.287L180.499 109.97C180.571 109.916 180.654 109.875 180.744 109.85C180.834 109.825 180.928 109.817 181.022 109.826C181.115 109.835 181.206 109.86 181.288 109.902C181.37 109.943 181.441 109.998 181.498 110.065Z" fill="#63C6A2"/>
<path d="M153.247 101.33L153.604 101.71C153.721 101.84 153.776 102.007 153.756 102.172C153.736 102.338 153.643 102.491 153.497 102.596L153.069 102.912C152.922 103.017 152.734 103.065 152.547 103.047C152.36 103.03 152.189 102.947 152.07 102.817L151.713 102.438C151.596 102.307 151.541 102.141 151.561 101.975C151.581 101.809 151.674 101.657 151.82 101.552L152.248 101.235C152.318 101.178 152.401 101.135 152.491 101.108C152.582 101.082 152.677 101.073 152.772 101.081C152.867 101.09 152.958 101.117 153.04 101.16C153.122 101.203 153.192 101.261 153.247 101.33Z" fill="#63C6A2"/>
<path d="M153.996 95.6032L154.353 95.983C154.47 96.1133 154.525 96.2796 154.505 96.4456C154.485 96.6115 154.392 96.7637 154.246 96.8691L153.818 97.1855C153.671 97.2897 153.483 97.3382 153.296 97.3204C153.109 97.3026 152.938 97.22 152.819 97.0906L152.462 96.7108C152.345 96.5805 152.29 96.4142 152.31 96.2482C152.33 96.0823 152.423 95.9301 152.569 95.8247L152.997 95.5083C153.069 95.4538 153.152 95.4129 153.242 95.388C153.332 95.3632 153.426 95.3549 153.52 95.3638C153.613 95.3727 153.704 95.3986 153.786 95.4397C153.868 95.4809 153.939 95.5366 153.996 95.6032Z" fill="#63C6A2"/>
<path d="M154.781 89.8751L155.138 90.2548C155.255 90.3852 155.31 90.5514 155.29 90.7174C155.27 90.8833 155.177 91.0355 155.031 91.1409L154.603 91.4573C154.456 91.5615 154.269 91.61 154.081 91.5922C153.894 91.5744 153.723 91.4918 153.604 91.3624L153.247 90.9826C153.13 90.8523 153.075 90.686 153.095 90.5201C153.115 90.3541 153.209 90.2019 153.354 90.0966L153.782 89.7801C153.929 89.6759 154.117 89.6274 154.304 89.6452C154.491 89.663 154.663 89.7456 154.781 89.8751Z" fill="#63C6A2"/>
<path d="M159.062 101.932L159.418 102.312C159.536 102.442 159.59 102.608 159.57 102.774C159.55 102.94 159.457 103.092 159.311 103.198L158.883 103.514C158.736 103.618 158.549 103.667 158.362 103.649C158.175 103.631 158.003 103.549 157.884 103.419L157.528 103.039C157.41 102.909 157.356 102.743 157.376 102.577C157.396 102.411 157.489 102.259 157.635 102.153L158.063 101.837C158.134 101.783 158.218 101.742 158.307 101.718C158.397 101.693 158.492 101.685 158.585 101.694C158.679 101.703 158.769 101.728 158.851 101.769C158.933 101.81 159.004 101.866 159.062 101.932Z" fill="#63C6A2"/>
<path d="M159.811 96.2044L160.167 96.5841C160.285 96.7145 160.339 96.8807 160.319 97.0467C160.299 97.2126 160.206 97.3648 160.06 97.4702L159.632 97.7866C159.485 97.8908 159.298 97.9393 159.111 97.9215C158.924 97.9038 158.752 97.8211 158.633 97.6917L158.277 97.3119C158.159 97.1816 158.105 97.0153 158.125 96.8494C158.145 96.6834 158.238 96.5312 158.384 96.4259L158.812 96.1094C158.883 96.0553 158.967 96.0148 159.056 95.9902C159.146 95.9656 159.241 95.9575 159.334 95.9664C159.428 95.9753 159.518 96.001 159.6 96.0419C159.682 96.0828 159.754 96.1381 159.811 96.2044Z" fill="#63C6A2"/>
<path d="M160.56 90.4766L160.916 90.8564C161.034 90.9867 161.088 91.153 161.068 91.3189C161.048 91.4849 160.955 91.6371 160.809 91.7424L160.381 92.0589C160.234 92.1631 160.047 92.2116 159.86 92.1938C159.673 92.176 159.501 92.0934 159.382 91.964L159.026 91.5842C158.908 91.4538 158.854 91.2876 158.874 91.1216C158.894 90.9557 158.987 90.8035 159.133 90.6981L159.561 90.3817C159.708 90.2775 159.895 90.229 160.082 90.2468C160.269 90.2645 160.441 90.3472 160.56 90.4766Z" fill="#63C6A2"/>
<path d="M164.875 102.533L165.232 102.913C165.35 103.043 165.404 103.21 165.384 103.376C165.364 103.542 165.271 103.694 165.125 103.799L164.697 104.116C164.55 104.22 164.363 104.268 164.176 104.25C163.989 104.233 163.817 104.15 163.698 104.021L163.342 103.641C163.224 103.51 163.17 103.344 163.19 103.178C163.21 103.012 163.303 102.86 163.449 102.755L163.877 102.438C164.024 102.334 164.211 102.286 164.398 102.303C164.585 102.321 164.757 102.404 164.875 102.533Z" fill="#63C6A2"/>
<path d="M165.625 96.8057L165.982 97.1855C166.099 97.3158 166.154 97.4821 166.134 97.648C166.114 97.814 166.021 97.9662 165.875 98.0715L165.447 98.388C165.3 98.4922 165.112 98.5407 164.925 98.5229C164.738 98.5051 164.567 98.4225 164.448 98.2931L164.091 97.9133C163.974 97.7829 163.919 97.6167 163.939 97.4507C163.959 97.2848 164.052 97.1326 164.198 97.0272L164.626 96.7108C164.773 96.6066 164.961 96.5581 165.148 96.5759C165.335 96.5936 165.506 96.6763 165.625 96.8057Z" fill="#63C6A2"/>
<path d="M166.374 91.0782L166.731 91.4579C166.848 91.5883 166.903 91.7545 166.883 91.9205C166.863 92.0864 166.77 92.2387 166.624 92.344L166.196 92.6604C166.049 92.7647 165.861 92.8131 165.674 92.7954C165.487 92.7776 165.316 92.695 165.197 92.5655L164.84 92.1858C164.723 92.0554 164.668 91.8891 164.688 91.7232C164.708 91.5572 164.801 91.405 164.947 91.2997L165.375 90.9832C165.522 90.879 165.71 90.8305 165.897 90.8483C166.084 90.8661 166.255 90.9487 166.374 91.0782Z" fill="#63C6A2"/>
<path d="M170.654 103.135L171.011 103.515C171.128 103.645 171.183 103.811 171.163 103.977C171.143 104.143 171.05 104.295 170.904 104.401L170.476 104.717C170.329 104.821 170.142 104.87 169.955 104.852C169.767 104.834 169.596 104.752 169.477 104.622L169.12 104.243C169.003 104.112 168.948 103.946 168.968 103.78C168.988 103.614 169.082 103.462 169.227 103.357L169.656 103.04C169.727 102.986 169.81 102.945 169.9 102.921C169.99 102.896 170.084 102.888 170.178 102.897C170.271 102.906 170.362 102.932 170.444 102.973C170.526 103.013 170.597 103.069 170.654 103.135Z" fill="#63C6A2"/>
<path d="M171.439 97.4073L171.796 97.787C171.913 97.9174 171.968 98.0837 171.948 98.2496C171.928 98.4155 171.835 98.5678 171.689 98.6731L171.261 98.9896C171.114 99.0938 170.926 99.1422 170.739 99.1245C170.552 99.1067 170.381 99.0241 170.262 98.8946L169.905 98.5149C169.788 98.3845 169.733 98.2182 169.753 98.0523C169.773 97.8863 169.866 97.7341 170.012 97.6288L170.44 97.3123C170.587 97.2081 170.775 97.1597 170.962 97.1774C171.149 97.1952 171.32 97.2778 171.439 97.4073Z" fill="#63C6A2"/>
<path d="M172.187 91.71L172.544 92.0898C172.662 92.2201 172.716 92.3864 172.696 92.5523C172.676 92.7183 172.583 92.8705 172.437 92.9758L172.009 93.2923C171.862 93.3965 171.675 93.445 171.488 93.4272C171.301 93.4094 171.129 93.3268 171.01 93.1974L170.654 92.8176C170.536 92.6872 170.482 92.521 170.502 92.355C170.522 92.1891 170.615 92.0369 170.761 91.9315L171.189 91.6151C171.259 91.5578 171.341 91.5145 171.432 91.488C171.522 91.4614 171.618 91.4524 171.712 91.4614C171.807 91.4704 171.898 91.4972 171.98 91.5401C172.062 91.583 172.133 91.6409 172.187 91.71Z" fill="#63C6A2"/>
<path d="M176.468 103.737L176.825 104.116C176.942 104.247 176.997 104.413 176.977 104.579C176.957 104.745 176.864 104.897 176.718 105.002L176.29 105.319C176.143 105.423 175.956 105.472 175.769 105.454C175.581 105.436 175.41 105.353 175.291 105.224L174.934 104.844C174.817 104.714 174.762 104.548 174.782 104.382C174.802 104.216 174.896 104.063 175.041 103.958L175.469 103.642C175.541 103.588 175.624 103.547 175.714 103.522C175.804 103.498 175.898 103.49 175.992 103.499C176.085 103.507 176.176 103.533 176.258 103.574C176.34 103.615 176.411 103.67 176.468 103.737Z" fill="#63C6A2"/>
<path d="M177.218 98.0079L177.574 98.3876C177.692 98.518 177.747 98.6842 177.727 98.8502C177.706 99.0161 177.613 99.1683 177.467 99.2737L177.039 99.5901C176.892 99.6943 176.705 99.7428 176.518 99.725C176.331 99.7073 176.159 99.6247 176.041 99.4952L175.684 99.1154C175.566 98.9851 175.512 98.8188 175.532 98.6529C175.552 98.4869 175.645 98.3347 175.791 98.2294L176.219 97.9129C176.366 97.8087 176.553 97.7602 176.74 97.778C176.927 97.7958 177.099 97.8784 177.218 98.0079Z" fill="#63C6A2"/>
<path d="M177.967 92.3122L178.323 92.692C178.441 92.8223 178.496 92.9886 178.476 93.1545C178.456 93.3205 178.362 93.4727 178.216 93.578L177.788 93.8945C177.641 93.9987 177.454 94.0472 177.267 94.0294C177.08 94.0116 176.908 93.929 176.79 93.7996L176.433 93.4198C176.316 93.2894 176.261 93.1232 176.281 92.9572C176.301 92.7913 176.394 92.6391 176.54 92.5337L176.968 92.2173C177.039 92.1628 177.123 92.1218 177.212 92.097C177.302 92.0721 177.397 92.0639 177.491 92.0728C177.584 92.0817 177.675 92.1076 177.757 92.1487C177.839 92.1899 177.91 92.2455 177.967 92.3122Z" fill="#63C6A2"/>
<path d="M178.751 86.584L179.108 86.9638C179.225 87.0941 179.28 87.2604 179.26 87.4264C179.24 87.5923 179.147 87.7445 179.001 87.8499L178.573 88.1663C178.426 88.2705 178.238 88.319 178.051 88.3012C177.864 88.2834 177.693 88.2008 177.574 88.0714L177.217 87.6916C177.1 87.5613 177.045 87.395 177.065 87.229C177.085 87.0631 177.178 86.9109 177.324 86.8055L177.752 86.4891C177.899 86.3849 178.087 86.3364 178.274 86.3542C178.461 86.372 178.632 86.4546 178.751 86.584Z" fill="#63C6A2"/>
<path d="M182.283 104.337L182.639 104.717C182.757 104.847 182.812 105.013 182.791 105.179C182.771 105.345 182.678 105.497 182.532 105.603L182.104 105.919C181.957 106.023 181.77 106.072 181.583 106.054C181.396 106.036 181.224 105.954 181.106 105.824L180.749 105.445C180.631 105.314 180.577 105.148 180.597 104.982C180.617 104.816 180.71 104.664 180.856 104.558L181.284 104.242C181.431 104.138 181.618 104.089 181.805 104.107C181.992 104.125 182.164 104.208 182.283 104.337Z" fill="#63C6A2"/>
</g>
<path d="M180.542 93.9363C182.516 95.9521 184.157 98.2396 185.411 100.721C185.411 100.721 185.543 92.0264 185.729 91.4233C187.63 91.7879 189.601 91.64 191.419 90.9961C191.419 90.9961 192.186 97.7059 193.324 102.807C194.462 107.909 195.732 115.523 191.868 116.528C188.005 117.534 184.485 115.222 179.801 109.266C175.116 103.31 175.513 100.345 175.513 98.8367C175.487 97.0525 178.027 92.4788 180.542 93.9363Z" fill="#6DAFA7"/>
<path d="M185.411 100.747C185.411 100.747 185.226 106.15 185.914 109.568" stroke="#22272E" stroke-width="1.8" stroke-linecap="round" stroke-linejoin="round"/>
<path d="M185.57 93.7855C185.57 93.7855 188.957 94.7907 191.657 93.1572" stroke="#22272E" stroke-width="1.8" stroke-linecap="round" stroke-linejoin="round"/>
<path d="M190.625 92.5044C190.625 92.5591 190.608 92.6125 190.576 92.658C190.544 92.7034 190.498 92.7389 190.445 92.7598C190.392 92.7807 190.333 92.7862 190.277 92.7755C190.22 92.7649 190.168 92.7385 190.128 92.6999C190.087 92.6612 190.059 92.612 190.048 92.5583C190.037 92.5047 190.043 92.4491 190.065 92.3986C190.087 92.3481 190.124 92.3049 190.172 92.2746C190.22 92.2442 190.276 92.228 190.334 92.228C190.373 92.224 190.413 92.2284 190.45 92.2409C190.487 92.2534 190.521 92.2737 190.549 92.3002C190.577 92.3267 190.598 92.3588 190.611 92.3941C190.624 92.4294 190.629 92.4671 190.625 92.5044Z" stroke="#22272E" stroke-width="1.8" stroke-linecap="round" stroke-linejoin="round"/>
<path d="M191.207 91.0973C191.207 91.0973 190.942 89.3131 192.212 88.7351C193.483 88.1571 194.647 88.4335 195.944 87.5289C197.241 86.6242 199.437 83.7593 199.358 83.1311C199.279 82.5028 198.802 82.7792 197.929 83.4578C197.551 83.7925 197.123 84.072 196.659 84.2871C196.659 84.2871 197.188 82.5782 196.95 81.3217C196.711 80.0652 195.812 79.9144 195.6 80.0401C195.388 80.1657 195.6 80.6934 195.547 81.6986C195.494 82.7039 195.176 83.5332 194.25 84.1614C194.367 83.5703 194.303 82.9597 194.065 82.4023C193.642 81.4473 192.927 80.8191 192.371 80.9699C191.815 81.1207 192.001 81.5227 192.265 82.0756C192.53 82.6285 192.953 83.6337 191.842 84.6891C191.622 84.922 191.321 85.0727 190.995 85.1144C190.668 85.1561 190.337 85.086 190.06 84.9166C189.782 84.7472 189.578 84.4897 189.483 84.1901C189.387 83.8906 189.407 83.5686 189.539 83.2818C190.148 81.8746 191.074 81.5479 191.551 81.1709C192.027 80.794 191.895 80.1154 190.889 80.2662C189.883 80.417 188.163 81.573 187.158 82.8546C186.152 84.1363 185.861 85.8703 185.834 87.5791C185.808 89.288 185.729 91.4743 185.729 91.4743C185.729 91.4743 186.39 92.2533 187.846 92.2533C189.301 92.2533 191.207 91.7256 191.207 91.0973Z" fill="#F4C2C9"/>
<path d="M196.659 84.3115C196.368 85.0539 196.004 85.769 195.574 86.4476" stroke="#E26E85" stroke-width="1.8" stroke-linecap="round" stroke-linejoin="round"/>
<path d="M194.224 84.1611C194.114 84.8703 193.823 85.5432 193.377 86.1213" stroke="#E26E85" stroke-width="1.8" stroke-linecap="round" stroke-linejoin="round"/>
<path d="M187.978 116.429C187.978 116.429 187.316 115.423 188.931 113.89C190.545 112.357 193.986 112.533 194.091 114.117" stroke="#22272E" stroke-width="1.8" stroke-linecap="round" stroke-linejoin="round"/>
<path d="M162.281 87.981C162.281 87.981 160.799 87.9056 159.872 89.8155C158.946 91.7254 159.211 95.6457 160.217 96.2488C161.222 96.852 163.922 94.2635 163.922 94.2635C163.922 94.2635 166.198 97.1787 167.838 97.053C169.479 96.9274 171.543 94.1379 171.411 91.072C171.279 88.0061 169.956 87.6543 169.241 87.5789C168.553 87.4533 162.281 87.981 162.281 87.981Z" fill="white"/>
<path d="M163.921 94.2379C163.921 94.2379 158.708 99.7163 158.655 100.747C158.602 101.777 160.375 102.104 160.852 101.877C161.328 101.651 164.451 94.1625 163.921 94.2379Z" fill="white"/>
<path d="M163.869 94.9163C163.869 94.9163 164.768 100.998 165.351 101.953C165.933 102.908 167.785 101.475 167.574 100.646C167.362 99.8167 164.848 94.9666 163.921 94.2629C162.995 93.5593 163.869 94.9163 163.869 94.9163Z" fill="white"/>
<path d="M170.326 82.628C170.326 82.628 169.744 86.0709 170.167 88.6593C170.167 88.6593 167.653 93.9618 163.948 93.9618C162.122 93.9618 161.54 90.3933 161.857 88.986L162.413 85.0657C162.413 85.0657 166.118 78.9841 170.326 82.628Z" fill="#F4C2C9"/>
<path d="M167.283 86.2725C165.695 87.1771 163.948 87.6295 162.096 87.2777L161.884 88.7604C163.895 88.3834 165.933 87.8305 167.283 86.2725Z" fill="#E26E85"/>
<path d="M158.788 75.215C158.853 76.9348 158.782 78.6569 158.576 80.3667C158.232 83.5582 158.364 85.644 161.222 87.0011C164.081 88.3581 168.712 87.1267 170.406 83.2566C172.099 79.3866 174.349 72.0234 168.262 70.9177C162.175 69.812 158.708 71.1941 158.788 75.215Z" fill="#F4C2C9"/>
<path d="M163.022 72.6771C163.022 72.6771 164.186 76.3963 166.78 77.3513C169.373 78.3062 168.976 80.6182 170.273 80.3418C171.57 80.0653 172.575 79.0601 173.449 80.0402C174.322 81.0203 174.402 72.4006 169.929 70.9179C165.456 69.4353 160.719 69.3599 159.317 70.7169C157.914 72.0739 158.417 76.4215 158.417 76.4215C158.417 76.4215 161.275 75.7932 163.022 72.6771Z" fill="#22272E"/>
<path d="M170.564 80.366C170.564 80.366 171.173 78.9336 172.47 79.1849C173.767 79.4362 173.661 83.3313 170.353 83.1303" fill="#F4C2C9"/>
<path d="M161.301 79.0342C161.451 79.3687 161.47 79.7431 161.354 80.0897C161.302 80.2677 161.222 80.4372 161.116 80.5923L160.957 80.8184C160.931 80.8687 160.878 80.9441 160.852 80.9943C160.805 81.1147 160.79 81.2442 160.808 81.3713C160.827 81.4985 160.878 81.6193 160.957 81.7231C161.151 81.98 161.431 82.1662 161.751 82.2508C161.572 82.3144 161.375 82.3144 161.196 82.2508C161.007 82.1992 160.834 82.1043 160.693 81.9744C160.534 81.8382 160.415 81.665 160.349 81.4718C160.3 81.2621 160.319 81.0433 160.402 80.8436C160.449 80.7565 160.502 80.6726 160.56 80.5923C160.613 80.5169 160.666 80.4666 160.719 80.3912C160.823 80.2668 160.911 80.1319 160.984 79.9891C161.156 79.6943 161.264 79.3695 161.301 79.0342Z" fill="#22272E"/>
<path d="M163.26 83.9347C163.671 84.023 164.102 83.9797 164.485 83.8116C164.868 83.6434 165.181 83.3598 165.377 83.0049" stroke="#22272E" stroke-width="1.8" stroke-linecap="round" stroke-linejoin="round"/>
<path d="M164.954 79.0342C164.954 79.0342 165.059 79.587 166.065 79.6876C166.306 79.717 166.551 79.6807 166.772 79.5828C166.992 79.4849 167.178 79.3295 167.309 79.1347" stroke="#22272E" stroke-width="1.8" stroke-linecap="round" stroke-linejoin="round"/>
<path d="M160.825 78.6322C160.825 78.6322 160.031 79.2354 159.396 78.4814" stroke="#22272E" stroke-width="1.8" stroke-linecap="round" stroke-linejoin="round"/>
<path d="M161.566 76.2446C161.619 75.9179 161.222 75.3651 160.693 75.2143C160.164 75.0635 159.317 75.7671 159.396 76.0687C159.476 76.3703 160.005 75.9179 160.481 75.9682C160.905 76.0184 161.514 76.521 161.566 76.2446Z" fill="#22272E"/>
<path d="M167.891 76.7983C167.944 76.4716 167.547 75.9188 167.018 75.768C166.489 75.6172 165.642 76.3208 165.721 76.6224C165.8 76.924 166.33 76.4716 166.806 76.5219C167.282 76.5722 167.865 77.0748 167.891 76.7983Z" fill="#22272E"/>
<path d="M172.364 80.3662C172.138 80.4115 171.939 80.5374 171.808 80.7181C171.776 80.7984 171.758 80.8834 171.755 80.9694V81.3212C171.757 81.467 171.73 81.6119 171.676 81.7484C171.649 81.8273 171.604 81.8998 171.545 81.9605C171.485 82.0213 171.413 82.069 171.332 82.1002C171.19 82.1511 171.037 82.1707 170.886 82.1577C170.735 82.1446 170.589 82.0992 170.458 82.0248C170.695 81.9858 170.92 81.9002 171.12 81.7735C171.184 81.7063 171.232 81.6263 171.26 81.5393C171.287 81.4524 171.294 81.3606 171.279 81.2709V80.8688C171.294 80.7071 171.369 80.5556 171.491 80.4416C171.619 80.3634 171.766 80.3157 171.918 80.3025C172.07 80.2894 172.223 80.3113 172.364 80.3662Z" fill="#22272E"/>
<path d="M158.973 81.095C160.273 81.095 161.328 80.0036 161.328 78.6574C161.328 77.3111 160.273 76.2197 158.973 76.2197C157.672 76.2197 156.617 77.3111 156.617 78.6574C156.617 80.0036 157.672 81.095 158.973 81.095Z" stroke="#22272E" stroke-width="1.8" stroke-linecap="round" stroke-linejoin="round"/>
<path d="M165.769 81.9424C167.274 81.9424 168.495 80.7836 168.495 79.354C168.495 77.9245 167.274 76.7656 165.769 76.7656C164.263 76.7656 163.043 77.9245 163.043 79.354C163.043 80.7836 164.263 81.9424 165.769 81.9424Z" stroke="#22272E" stroke-width="1.8" stroke-linecap="round" stroke-linejoin="round"/>
<path d="M161.328 78.8586C161.328 78.8586 161.752 78.4314 163.075 78.9591" stroke="#22272E" stroke-width="1.8" stroke-linecap="round" stroke-linejoin="round"/>
<path d="M168.5 79.3613L171.094 79.5875" stroke="#22272E" stroke-width="1.8" stroke-linecap="round" stroke-linejoin="round"/>
<path d="M171.729 82.5274L170.829 84.0101C170.803 84.0538 170.79 84.1032 170.79 84.1534C170.791 84.2036 170.805 84.2528 170.832 84.2961C170.858 84.3393 170.897 84.3752 170.943 84.3999C170.989 84.4247 171.041 84.4376 171.094 84.4373H172.893C172.946 84.4376 172.998 84.4247 173.044 84.3999C173.09 84.3752 173.128 84.3393 173.155 84.2961C173.182 84.2528 173.196 84.2036 173.197 84.1534C173.197 84.1032 173.184 84.0538 173.158 84.0101L172.258 82.5274C172.229 82.4865 172.189 82.453 172.143 82.4298C172.097 82.4066 172.046 82.3945 171.993 82.3945C171.941 82.3945 171.89 82.4066 171.844 82.4298C171.798 82.453 171.758 82.4865 171.729 82.5274Z" fill="#FFE779"/>
<path d="M208.594 132.813L209.229 138.392C209.229 138.794 211.426 139.096 214.125 139.096C216.825 139.096 219.021 138.769 219.021 138.392L219.657 132.813H208.594Z" fill="#22272E"/>
<path d="M219.657 132.813C219.657 133.265 217.169 133.617 214.125 133.617C211.082 133.617 208.594 133.265 208.594 132.813C208.594 132.361 211.082 132.009 214.125 132.009C217.169 132.009 219.657 132.386 219.657 132.813Z" fill="#3401C6"/>
<path d="M212.643 132.813C212.643 132.813 209.679 131.708 209.997 129.546C210.315 127.385 212.511 131.858 213.067 131.18C213.623 130.501 212.908 127.209 214.125 126.908C215.343 126.606 215.025 131.23 215.025 131.23C215.779 130.868 216.46 130.383 217.037 129.798C217.804 128.943 218.916 130.853 215.766 132.813C214.766 133.205 213.644 133.205 212.643 132.813Z" fill="#6DAFA7"/>
<path d="M238.764 131.356C238.764 131.624 238.68 131.887 238.523 132.11C238.366 132.333 238.143 132.507 237.882 132.61C237.621 132.713 237.333 132.739 237.056 132.687C236.779 132.635 236.524 132.505 236.324 132.316C236.124 132.126 235.988 131.884 235.933 131.621C235.878 131.358 235.906 131.085 236.015 130.837C236.123 130.589 236.306 130.377 236.541 130.228C236.776 130.079 237.052 129.999 237.335 129.999C237.712 130.006 238.071 130.151 238.337 130.404C238.604 130.657 238.757 130.998 238.764 131.356Z" fill="#FFE779"/>
<path d="M103.901 136.206C103.117 136.394 102.392 136.756 101.784 137.261C100.403 138.317 98.6572 138.846 96.8877 138.744C95.8441 138.7 94.8248 138.431 93.9075 137.956C92.9902 137.481 92.1992 136.814 91.5947 136.005C95.6838 136.396 99.8001 136.463 103.901 136.206Z" fill="white"/>
<path d="M96.8614 138.769C92.2036 138.844 85.6933 138.769 83.6819 138.744C81.353 138.92 78.733 138.065 76.9863 135.326C76.9863 135.326 78.7065 135.577 83.1262 135.603C87.5458 135.628 91.0656 135.326 91.0656 135.326C91.2244 135.577 91.3832 135.804 91.542 136.03C92.1621 136.83 92.9602 137.49 93.8797 137.963C94.7991 138.437 95.8172 138.712 96.8614 138.769Z" fill="#22272E"/>
</svg>
