<svg width="167" height="147" viewBox="0 0 167 147" fill="none" xmlns="http://www.w3.org/2000/svg">
<g clip-path="url(#clip0_15_226)">
<path d="M18.8201 55.4121L21.8861 60.1207C24.5934 64.2838 29.0293 67.3559 34.2807 68.6766L53.166 73.4139C58.7762 74.8207 62.625 79.3283 62.625 84.4676V95.9232C62.625 99.0814 64.6473 101.953 67.8438 103.359C71.0402 104.766 73.0625 107.637 73.0625 110.796V121.993C73.0625 126.472 77.9225 129.716 82.815 128.481C88.0664 127.161 92.1436 123.457 93.4809 118.777L94.3941 115.562C95.7641 110.709 99.352 106.546 104.277 104.077L106.919 102.756C111.812 100.316 114.812 95.7223 114.812 90.784V88.401C114.812 84.7547 113.149 81.252 110.213 78.668L108.941 77.5482C106.006 74.9643 102.027 73.5 97.8842 73.5H83.8262C80.2057 73.5 76.6178 72.6674 73.4539 71.0883L62.201 65.4322C60.7984 64.7145 59.7221 63.566 59.2002 62.2166C58.1564 59.4604 59.559 56.4744 62.5271 55.1824L64.4516 54.3211C66.6043 53.3736 69.1158 53.2014 71.399 53.8904L78.9662 56.1012C81.6408 56.8764 84.5764 55.9863 86.1094 53.9479C87.6424 51.9381 87.4793 49.268 85.718 47.4018L81.282 42.7219C78.0203 39.2766 78.0529 34.2521 81.3799 30.8643L86.5008 25.6102C89.3711 22.6529 89.8277 18.4324 87.6424 15.0732L86.8596 13.8674C85.718 13.81 84.609 13.7812 83.4674 13.7812C53.1986 13.7812 27.5289 31.2662 18.8201 55.4121ZM151.344 73.5C151.344 62.9344 148.212 53.0004 142.733 44.3584L134.383 47.3156C129.262 49.1244 126.62 54.1488 128.349 58.7426L133.861 73.299C135.003 76.285 137.775 78.5531 141.232 79.2996L150.724 81.3955C151.115 78.8115 151.311 76.1701 151.311 73.5H151.344ZM0 73.5C0 54.0066 8.7973 35.3116 24.4566 21.5277C40.1159 7.74373 61.3544 0 83.5 0C105.646 0 126.884 7.74373 142.543 21.5277C158.203 35.3116 167 54.0066 167 73.5C167 92.9934 158.203 111.688 142.543 125.472C126.884 139.256 105.646 147 83.5 147C61.3544 147 40.1159 139.256 24.4566 125.472C8.7973 111.688 0 92.9934 0 73.5Z" fill="#3401C6"/>
</g>
<defs>
<clipPath id="clip0_15_226">
<rect width="167" height="147" fill="white"/>
</clipPath>
</defs>
</svg>
