<svg width="64" height="45" viewBox="0 0 64 45" fill="none" xmlns="http://www.w3.org/2000/svg">
<path fill-rule="evenodd" clip-rule="evenodd" d="M0.87868 0.87868C0 1.75736 0 3.17157 0 6V39C0 41.8284 0 43.2426 0.87868 44.1213C1.75736 45 3.17157 45 6 45H58C60.8284 45 62.2426 45 63.1213 44.1213C64 43.2426 64 41.8284 64 39V6C64 3.17157 64 1.75736 63.1213 0.87868C62.2426 0 60.8284 0 58 0H6C3.17157 0 1.75736 0 0.87868 0.87868ZM11.1827 12.001C10.7097 11.7159 10.0951 11.8683 9.81003 12.3413C9.52495 12.8143 9.6773 13.4289 10.1503 13.714L30.9675 26.26C31.6025 26.6427 32.3972 26.6427 33.0322 26.26L53.8494 13.714C54.3224 13.4289 54.4747 12.8143 54.1897 12.3413C53.9046 11.8683 53.29 11.7159 52.817 12.001L31.9998 24.547L11.1827 12.001Z" fill="#3401C6"/>
</svg>
