<svg width="64" height="54" viewBox="0 0 64 54" fill="none" xmlns="http://www.w3.org/2000/svg">
<g clip-path="url(#clip0_21_199)">
<path d="M63.5798 15.6927C63.5798 10.9466 59.4423 7.12863 54.3298 7.12863C47.4048 6.85547 40.3423 6.75 33.1248 6.75H30.8748C23.6748 6.75 16.5998 6.85547 9.67478 7.12969C4.57478 7.12969 0.437284 10.9688 0.437284 15.7148C0.124784 19.4685 -0.00771643 23.2232 -0.000216427 26.9779C-0.0127164 30.7325 0.12895 34.4907 0.424784 38.2525C0.424784 42.9986 4.56228 46.8482 9.66228 46.8482C16.9373 47.1329 24.3998 47.2595 31.9873 47.2489C39.5873 47.27 47.0289 47.1364 54.3123 46.8482C59.4248 46.8482 63.5623 42.9986 63.5623 38.2525C63.8623 34.4872 63.9998 30.7325 63.9873 26.9673C64.0156 23.2126 63.8798 19.4544 63.5798 15.6927ZM25.8748 37.3243V16.5997L43.9998 26.9568L25.8748 37.3243Z" fill="#3401C6"/>
</g>
<defs>
<clipPath id="clip0_21_199">
<rect width="64" height="54" fill="white"/>
</clipPath>
</defs>
</svg>
