<svg width="61" height="57" viewBox="0 0 61 57" fill="none" xmlns="http://www.w3.org/2000/svg">
<path d="M2.15496 11.438L13.9016 0.623555C14.2844 0.271152 14.8735 0.271152 15.2563 0.623554L27.043 11.4748C27.4732 11.8709 27.4732 12.5501 27.043 12.9462L19.0417 20.3125C18.3674 20.9333 18.2013 21.933 18.6388 22.7384L20.8773 26.8602C23.2463 31.222 26.9627 34.7005 31.4715 36.776L36.579 39.127C37.3121 39.4644 38.1761 39.3282 38.7699 38.7816L47.0595 31.1499C47.4423 30.7975 48.0314 30.7975 48.4142 31.1499L60.2009 42.0011C60.6311 42.3973 60.6311 43.0764 60.2009 43.4725L47.9485 54.7525C45.8857 56.6516 42.7828 56.8688 40.4755 55.2757L20.5897 41.545C18.8021 40.3107 17.1983 38.8294 15.8263 37.1452L1.56704 19.6417C-0.436932 17.1818 -0.179306 13.587 2.15496 11.438Z" fill="#3401C6"/>
</svg>
