<svg width="48" height="48" viewBox="0 0 48 48" fill="none" xmlns="http://www.w3.org/2000/svg">
<path fill-rule="evenodd" clip-rule="evenodd" d="M24.3432 47.3625C27.2686 46.1646 47.9168 37.1468 47.9168 21.2497C47.9168 9.97386 37.209 0.833008 24.0002 0.833008C10.7914 0.833008 0.0834961 9.97386 0.0834961 21.2497C0.0834961 37.1468 20.7317 46.1646 23.6571 47.3625C23.8849 47.4557 24.1154 47.4557 24.3432 47.3625ZM24.0002 29.9997C29.6611 29.9997 34.2502 26.0822 34.2502 21.2497C34.2502 16.4172 29.6611 12.4997 24.0002 12.4997C18.3392 12.4997 13.7502 16.4172 13.7502 21.2497C13.7502 26.0822 18.3392 29.9997 24.0002 29.9997Z" fill="#3401C6"/>
</svg>
