<svg width="65" height="58" viewBox="0 0 65 58" fill="none" xmlns="http://www.w3.org/2000/svg">
<path fill-rule="evenodd" clip-rule="evenodd" d="M30.0659 29.0909L3.94231 21.3309C1.31411 20.5502 0 20.1599 0 19.4137C0 18.6676 1.31411 18.2772 3.94232 17.4965L61.0506 0.532509C62.7295 0.0337907 63.569 -0.215569 63.9913 0.237106C64.4137 0.68978 64.1069 1.50999 63.4933 3.1504L44.3028 54.4552C43.5164 56.5577 43.1232 57.6089 42.4296 57.6089C41.736 57.6089 41.3428 56.5577 40.5564 54.4552L31.5697 30.4297L46.8406 16.8211C47.2529 16.4536 47.2893 15.8215 46.9218 15.4092C46.5544 14.9969 45.9223 14.9605 45.51 15.3279L30.0659 29.0909Z" fill="#3401C6"/>
</svg>
