<svg width="17" height="9" viewBox="0 0 17 9" fill="none" xmlns="http://www.w3.org/2000/svg">
<path d="M5.95 3.21429C5.72457 3.21429 5.50837 3.28202 5.34896 3.40257C5.18955 3.52313 5.1 3.68665 5.1 3.85714V5.14286C5.1 5.31335 5.18955 5.47687 5.34896 5.59743C5.50837 5.71798 5.72457 5.78571 5.95 5.78571C6.17543 5.78571 6.39163 5.71798 6.55104 5.59743C6.71045 5.47687 6.8 5.31335 6.8 5.14286V3.85714C6.8 3.68665 6.71045 3.52313 6.55104 3.40257C6.39163 3.28202 6.17543 3.21429 5.95 3.21429ZM16.15 3.85714C16.3754 3.85714 16.5916 3.78941 16.751 3.66885C16.9104 3.5483 17 3.38478 17 3.21429V0.642857C17 0.472361 16.9104 0.308848 16.751 0.188289C16.5916 0.0677295 16.3754 0 16.15 0H0.85C0.624566 0 0.408365 0.0677295 0.248959 0.188289C0.0895533 0.308848 0 0.472361 0 0.642857V3.21429C0 3.38478 0.0895533 3.5483 0.248959 3.66885C0.408365 3.78941 0.624566 3.85714 0.85 3.85714C1.07543 3.85714 1.29163 3.92487 1.45104 4.04543C1.61045 4.16599 1.7 4.3295 1.7 4.5C1.7 4.6705 1.61045 4.83401 1.45104 4.95457C1.29163 5.07513 1.07543 5.14286 0.85 5.14286C0.624566 5.14286 0.408365 5.21059 0.248959 5.33115C0.0895533 5.4517 0 5.61522 0 5.78571V8.35714C0 8.52764 0.0895533 8.69115 0.248959 8.81171C0.408365 8.93227 0.624566 9 0.85 9H16.15C16.3754 9 16.5916 8.93227 16.751 8.81171C16.9104 8.69115 17 8.52764 17 8.35714V5.78571C17 5.61522 16.9104 5.4517 16.751 5.33115C16.5916 5.21059 16.3754 5.14286 16.15 5.14286C15.9246 5.14286 15.7084 5.07513 15.549 4.95457C15.3896 4.83401 15.3 4.6705 15.3 4.5C15.3 4.3295 15.3896 4.16599 15.549 4.04543C15.7084 3.92487 15.9246 3.85714 16.15 3.85714ZM15.3 2.68714C14.8077 2.82227 14.3824 3.06876 14.0818 3.39311C13.7812 3.71745 13.62 4.10392 13.62 4.5C13.62 4.89608 13.7812 5.28255 14.0818 5.60689C14.3824 5.93124 14.8077 6.17773 15.3 6.31286V7.71429H6.8C6.8 7.54379 6.71045 7.38028 6.55104 7.25972C6.39163 7.13916 6.17543 7.07143 5.95 7.07143C5.72457 7.07143 5.50837 7.13916 5.34896 7.25972C5.18955 7.38028 5.1 7.54379 5.1 7.71429H1.7V6.31286C2.19228 6.17773 2.61761 5.93124 2.91818 5.60689C3.21876 5.28255 3.38001 4.89608 3.38001 4.5C3.38001 4.10392 3.21876 3.71745 2.91818 3.39311C2.61761 3.06876 2.19228 2.82227 1.7 2.68714V1.28571H5.1C5.1 1.45621 5.18955 1.61972 5.34896 1.74028C5.50837 1.86084 5.72457 1.92857 5.95 1.92857C6.17543 1.92857 6.39163 1.86084 6.55104 1.74028C6.71045 1.61972 6.8 1.45621 6.8 1.28571H15.3V2.68714Z" fill="#3401C6"/>
</svg>
