<svg width="60" height="43" viewBox="0 0 60 43" fill="none" xmlns="http://www.w3.org/2000/svg">
<path d="M60 5.19045C57.7493 6.06143 55.368 6.63525 52.9313 6.89377C55.4921 5.55825 57.4179 3.43655 58.3475 0.926581C55.9264 2.18747 53.2819 3.07218 50.5275 3.54279C49.3676 2.46016 47.9727 1.5989 46.4274 1.01135C44.8822 0.423807 43.2189 0.122253 41.5387 0.125019C34.7362 0.125019 29.2313 4.95666 29.2313 10.9127C29.2264 11.7412 29.333 12.5672 29.5487 13.3731C24.6709 13.1694 19.8944 12.0612 15.525 10.1192C11.1555 8.1773 7.28936 5.44445 4.17375 2.09553C3.08072 3.73664 2.50267 5.60909 2.5 7.51721C2.5 11.2578 4.69125 14.5643 8 16.5014C6.03966 16.46 4.11949 15.9979 2.4025 15.1543V15.2879C2.4025 20.5203 6.6525 24.8733 12.2775 25.8641C11.2197 26.1152 10.1297 26.2425 9.035 26.2426C8.25822 26.2438 7.48321 26.1767 6.72125 26.0422C8.285 30.3283 12.8363 33.4455 18.2275 33.5346C13.8467 36.5415 8.46827 38.1667 2.9375 38.1547C1.95577 38.1534 0.974957 38.1014 0 37.9988C5.62647 41.1987 12.1668 42.8912 18.8425 42.875C41.5125 42.875 53.8975 26.4319 53.8975 12.1707C53.8975 11.7031 53.8837 11.2356 53.8587 10.7791C56.2626 9.25622 58.3423 7.3637 60 5.19045Z" fill="#3401C6"/>
</svg>
