<svg width="436" height="219" viewBox="0 0 436 219" fill="none" xmlns="http://www.w3.org/2000/svg">
<g clip-path="url(#clip0_17_123)">
<path d="M53.7967 123.82C71.4689 123.82 85.7951 113.119 85.7951 99.9175C85.7951 86.7163 71.4689 76.0146 53.7967 76.0146C36.1245 76.0146 21.7983 86.7163 21.7983 99.9175C21.7983 113.119 36.1245 123.82 53.7967 123.82Z" fill="#FF6884"/>
<path d="M67.6632 218.32H6.04541L19.9708 51.3681L29.0584 12.0204L30.7904 5.3818C32.8412 -2.47866 48.3135 -1.42894 48.4358 6.57889C48.7201 25.1966 38.2762 42.718 38.7859 51.3681C41.0848 90.5282 45.8895 146.056 55.1493 162.424C62.0265 174.585 65.7039 213.745 67.6632 218.32Z" fill="#63C6A2"/>
<path d="M428.014 218.32H371.047L365.061 51.3682L353.583 12.0278C353.451 4.00101 368.939 2.70099 371.195 10.5495C371.195 10.5495 382.503 28.0575 383.876 51.3682C386.175 90.5284 406.24 146.056 415.5 162.424C422.377 174.585 426.055 213.745 428.014 218.32Z" fill="#63C6A2"/>
<path d="M86.4094 108.919C99.2971 109.693 129.238 121.422 129.238 121.422C152.505 138.823 187.256 139.855 210.465 140.544C244.972 141.569 271.096 133.545 290.214 127.673C290.215 127.673 334.909 119.984 335.504 119.951C336.217 119.911 336.891 121.223 336.981 121.422C338.456 124.679 322.238 136.747 303.506 140.912C300.954 141.479 295.165 142.609 289.23 146.06C285.545 148.202 283.381 150.323 282.83 150.841C277.804 155.566 251.093 173.568 220.803 174.376C194.898 175.066 174.189 162.972 150.898 149.37C141.661 143.975 142.768 143.576 131.207 136.867C104.987 121.65 91.8772 114.042 85.9172 111.493C85.0911 111.14 82.1985 109.932 82.4712 109.287C82.7201 108.697 85.4852 108.863 86.4094 108.919Z" fill="#3401C6"/>
<path d="M82.4707 109.654C82.382 109.654 82.2924 109.636 82.2116 109.598L18.1141 79.8778C17.8831 79.7707 17.812 79.544 17.9555 79.3714C18.0988 79.1985 18.4026 79.1453 18.6333 79.2529L82.7308 108.974C82.9618 109.081 83.033 109.308 82.8895 109.48C82.7962 109.592 82.6354 109.654 82.4707 109.654Z" fill="#3F3D56"/>
<path d="M335.505 120.318C335.327 120.318 335.156 120.246 335.068 120.121C334.942 119.941 335.036 119.719 335.277 119.624L390.728 97.9911C390.97 97.897 391.267 97.9667 391.392 98.1468C391.518 98.3267 391.425 98.549 391.184 98.6431L335.732 120.277C335.66 120.305 335.582 120.318 335.505 120.318Z" fill="#3F3D56"/>
<path d="M0 218.563C0 218.805 0.260925 219 0.585846 219H79.0015C79.3264 219 79.5874 218.805 79.5874 218.563C79.5874 218.32 79.3264 218.125 79.0015 218.125H0.585846C0.260925 218.125 0 218.32 0 218.563Z" fill="#3F3D56"/>
<path d="M350.998 218.563C350.998 218.805 351.258 219 351.583 219H435.414C435.739 219 436 218.805 436 218.563C436 218.32 435.739 218.125 435.414 218.125H351.583C351.258 218.125 350.998 218.32 350.998 218.563Z" fill="#3F3D56"/>
<path d="M194.452 218.563C194.452 218.805 194.713 219 195.038 219H278.868C279.193 219 279.454 218.805 279.454 218.563C279.454 218.32 279.193 218.125 278.868 218.125H195.038C194.713 218.125 194.452 218.32 194.452 218.563Z" fill="#3F3D56"/>
<path d="M137.162 115.678C137.162 115.678 134.019 119.366 136.604 121.538C139.189 123.71 154.816 132.363 154.816 132.363C154.816 132.363 164.66 136.872 163.696 130.662C162.732 124.452 148.698 117.806 148.698 117.806L137.162 115.678Z" fill="#E6E6E6"/>
<path d="M162.707 105.916C161.026 105.795 159.457 107.296 159.202 109.27C159.085 110.057 159.223 110.854 159.604 111.594L159.352 113.833L159.301 113.837L155.801 124.12C154.987 126.511 155.651 129.072 157.712 131C158.938 132.147 160.382 132.847 161.695 131.813C163.875 130.097 163.807 121.711 163.576 116.916L164.299 111.932C164.862 111.26 165.201 110.498 165.289 109.708C165.544 107.735 164.388 106.037 162.707 105.916Z" fill="#FFB6B6"/>
<path d="M167.711 105.47L167.693 105.315C167.679 105.192 167.605 105.081 167.49 105.006C167.375 104.93 167.228 104.902 167.085 104.922L160.159 106.057C160.016 106.081 159.896 106.152 159.818 106.255C159.744 106.363 159.721 106.49 159.758 106.609L159.822 106.815L160.283 108.295L162.061 114.009C162.125 114.215 162.351 114.35 162.59 114.334C162.613 114.334 162.632 114.334 162.655 114.33L168.13 113.402C168.185 113.394 168.236 113.378 168.282 113.354C168.457 113.271 168.563 113.104 168.545 112.925L167.711 105.47Z" fill="#3401C6"/>
<path d="M167.577 104.609C167.478 104.611 167.346 104.614 167.187 104.62C167.219 104.548 167.224 104.467 167.194 104.387L166.985 103.833C166.93 103.69 166.776 103.592 166.6 103.591C165.555 103.586 161.972 103.656 159.876 104.773C159.745 104.843 159.673 104.972 159.688 105.104L159.758 105.712C159.767 105.787 159.802 105.854 159.855 105.907C159.676 105.97 159.499 106.036 159.323 106.105C159.213 106.149 159.144 106.245 159.146 106.35L159.149 106.611C159.152 106.778 159.329 106.901 159.518 106.869L167.79 105.46C167.978 105.428 168.087 105.257 168.018 105.103L167.872 104.779C167.825 104.674 167.707 104.606 167.577 104.609Z" fill="#3F3D56"/>
<path d="M146.172 112.817L144.047 117.975L135.018 116.388L134.486 108.056L146.172 112.817Z" fill="#FFB6B6"/>
<path d="M133.424 115.197L145.11 115.991L149.792 119.407L156.265 123.53C156.265 123.53 159.983 127.498 158.92 132.656L165.295 136.624L149.359 148.827L129.175 136.227C129.175 136.227 122.269 120.752 133.424 115.197Z" fill="#E6E6E6"/>
<path d="M161.045 137.021L165.683 136.624L173.212 137.021L197.945 126.019C201.056 124.635 205.076 125.358 207.003 127.648L226.91 151.305L220.536 154.48L200.883 139.402L176.374 154.48C176.374 154.48 151.484 164.206 149.359 148.828L161.045 137.021Z" fill="#2F2E41"/>
<path d="M176.449 150.908L216.287 148.131L254 155.273L256.125 149.321L204.601 135.434L186.01 139.005L176.449 150.908Z" fill="#2F2E41"/>
<path d="M131.772 118.425C131.772 118.425 128.116 121.84 130.374 124.206C132.631 126.573 146.922 136.431 146.922 136.431C146.922 136.431 156.061 141.704 155.996 135.452C155.931 129.201 142.935 121.467 142.935 121.467L131.772 118.425Z" fill="#E6E6E6"/>
<path d="M143.074 113.066C148.644 113.066 153.159 109.693 153.159 105.533C153.159 101.372 148.644 97.999 143.074 97.999C137.505 97.999 132.989 101.372 132.989 105.533C132.989 109.693 137.505 113.066 143.074 113.066Z" fill="#FFB6B6"/>
<path d="M152.372 104.238C149.785 104.233 149.638 104.246 149.22 104.238C146.012 104.175 145.173 103.232 143.547 103.296C140.645 103.411 144.475 114.28 146.068 119.305C147.631 124.233 142.351 128.649 141.971 128.957C136.612 133.311 127.198 134.108 125.583 132.253C124.276 130.753 128.909 128.471 127.789 125.191C126.694 121.984 121.638 122.326 120.225 119.305C118.745 116.142 123.719 114.546 126.844 106.828C128.638 102.395 128.321 101.569 129.995 98.8231C134.471 91.4842 156.41 94.6089 153.947 101.413C153.471 102.729 154.739 104.242 152.372 104.238Z" fill="#2F2E41"/>
<path d="M83.2097 109.103C96.0974 109.877 125.811 125.999 125.811 125.999C149.078 143.4 183.829 144.432 207.038 145.121C241.546 146.145 267.669 138.122 286.788 132.25C286.788 132.25 326.4 137.062 331.093 125.631C331.138 125.522 331.482 124.561 332.078 124.528C332.79 124.488 333.464 125.8 333.554 125.999C335.029 129.256 318.812 141.324 300.079 145.488C297.527 146.056 291.738 147.186 285.803 150.637C282.118 152.779 279.954 154.9 279.403 155.417C274.377 160.143 247.666 178.145 217.376 178.952C191.471 179.643 170.763 167.549 147.472 153.946C138.234 148.551 139.342 148.153 127.78 141.443C101.56 126.227 88.4503 118.618 82.4903 116.07C81.6642 115.716 80.4756 109.381 80.7483 108.735C80.9971 108.146 82.2855 109.047 83.2097 109.103Z" fill="white"/>
<path d="M186.877 148.433C187.626 147.302 186.304 145.673 183.924 144.794C182.98 144.433 181.934 144.247 180.873 144.25L178.16 143.279L178.174 143.242L166.547 137.147C163.844 135.73 160.402 135.284 157.258 136.039C155.388 136.488 153.999 137.248 154.827 138.533C156.201 140.664 166.72 143.593 172.802 145.135L178.783 147.408C179.424 148.04 180.258 148.548 181.215 148.889C183.594 149.768 186.129 149.563 186.877 148.433Z" fill="#FFB6B6"/>
<path d="M252.159 91.9695C252.159 91.9695 248.334 86.2552 249.099 81.1123L236.37 86.0412L236.86 95.3981L252.159 91.9695Z" fill="#A0616A"/>
<path d="M240.915 88.6804C247.257 88.6804 252.398 84.8399 252.398 80.1024C252.398 75.3649 247.257 71.5244 240.915 71.5244C234.573 71.5244 229.432 75.3649 229.432 80.1024C229.432 84.8399 234.573 88.6804 240.915 88.6804Z" fill="#A0616A"/>
<path d="M255.99 214.81L248.982 214.809L245.649 194.619L255.991 194.62L255.99 214.81Z" fill="#A0616A"/>
<path d="M231.982 214.691C231.764 214.965 231.648 215.851 231.648 216.171C231.648 217.152 232.713 217.947 234.027 217.947H255.727C256.623 217.947 257.35 217.404 257.35 216.735V216.06C257.35 216.06 258.423 214.032 256.213 211.532C256.213 211.532 253.466 213.489 249.362 210.423L248.151 208.785L239.389 213.572L234.533 214.018C233.47 214.116 232.528 214.003 231.982 214.691Z" fill="#2F2E41"/>
<path d="M235.33 91.9692L252.159 90.2549L265.163 94.8263L265.928 130.255C265.928 130.255 233.938 133.112 228.897 129.398C223.855 125.684 227.68 95.9692 227.68 95.9692L235.33 91.9692Z" fill="#E6E6E6"/>
<path d="M243.787 82.2873H246.874C246.874 82.2873 249.552 79.8244 249.192 81.325C248.832 82.8256 250.273 84.4407 250.273 84.4407L252.435 83.9023C252.435 83.9023 256.759 70.3205 243.787 69.5744C230.814 68.8283 227.932 76.3653 227.932 76.3653C227.932 76.3653 228.652 80.1338 230.094 79.0571C231.535 77.9804 239.463 77.4421 239.463 77.4421L243.787 82.2873Z" fill="#2F2E41"/>
<path d="M227.539 174.835L221.13 176.952L207.148 159.495L216.607 156.37L227.539 174.835Z" fill="#A0616A"/>
<path d="M205.518 181.981C205.467 182.298 205.842 183.143 206.015 183.435C206.546 184.332 207.951 184.738 209.152 184.341L228.998 177.784C229.817 177.513 230.188 176.798 229.825 176.185L229.46 175.568C229.46 175.568 229.343 173.389 225.968 171.77C225.968 171.77 224.516 174.39 219.102 172.827L217.108 171.694L211.687 178.719L207.487 180.595C206.569 181.006 205.646 181.187 205.518 181.981Z" fill="#2F2E41"/>
<path d="M263.634 126.826L265.929 132.01V149.827L258.433 165.969L259.044 203.605H245.594L244.076 165.216L245.275 146.255L236.095 143.398L211.983 144.509L223.259 165.215L210.851 171.398C210.851 171.398 192.293 139.805 195.07 136.744C197.847 133.683 230.358 128.284 230.358 128.284C230.358 128.284 263.634 127.398 263.634 126.826Z" fill="#2F2E41"/>
<path d="M270.518 106.255L274.217 110.78C274.217 110.78 279.445 126.13 274.217 126.193C268.989 126.255 258.433 118.37 258.433 118.37L259.809 114.255L263.634 115.398L262.869 106.255H270.518Z" fill="#A0616A"/>
<path d="M259.044 94.7539C259.044 94.7539 271.283 93.1431 272.431 99.1274C273.578 105.112 274.217 110.779 274.217 110.779L260.956 111.6L259.044 94.7539Z" fill="#E6E6E6"/>
<path d="M261.701 117.866C262.807 116.706 261.185 114.425 258.078 112.772C254.971 111.119 251.555 110.72 250.449 111.88C249.342 113.041 250.964 115.322 254.071 116.975C257.178 118.628 260.594 119.027 261.701 117.866Z" fill="#A0616A"/>
<path d="M242.549 104.182L242.521 103.947C242.5 103.76 242.388 103.591 242.213 103.477C242.038 103.362 241.814 103.32 241.598 103.35L231.08 105.074C230.863 105.11 230.681 105.218 230.562 105.375C230.451 105.537 230.416 105.73 230.472 105.911L230.569 106.224L231.269 108.472L233.968 117.148C234.066 117.462 234.409 117.667 234.772 117.643C234.807 117.643 234.835 117.643 234.87 117.637L243.185 116.227C243.269 116.215 243.346 116.19 243.416 116.154C243.682 116.028 243.843 115.775 243.815 115.504L242.549 104.182Z" fill="#3401C6"/>
<path d="M242.345 102.874C242.195 102.877 241.994 102.883 241.753 102.892C241.801 102.782 241.809 102.659 241.764 102.537L241.446 101.696C241.363 101.478 241.128 101.33 240.862 101.328C239.274 101.321 233.834 101.428 230.65 103.123C230.451 103.229 230.342 103.426 230.365 103.626L230.472 104.549C230.485 104.664 230.539 104.765 230.619 104.845C230.348 104.941 230.078 105.041 229.811 105.147C229.644 105.213 229.539 105.359 229.542 105.518L229.547 105.915C229.551 106.167 229.82 106.355 230.107 106.306L242.669 104.166C242.955 104.118 243.12 103.858 243.015 103.624L242.793 103.132C242.722 102.973 242.543 102.87 242.345 102.874Z" fill="#3F3D56"/>
<path d="M218.838 106.623L215.14 111.148C215.14 111.148 209.912 126.498 215.14 126.561C220.368 126.623 230.924 118.738 230.924 118.738L229.548 114.623L225.723 115.766L226.488 106.623H218.838Z" fill="#A0616A"/>
<path d="M230.313 95.1221C230.313 95.1221 218.074 93.5113 216.926 99.4955C215.779 105.48 215.14 111.147 215.14 111.147L228.401 111.968L230.313 95.1221Z" fill="#E6E6E6"/>
<path d="M235.286 117.342C238.393 115.689 240.015 113.408 238.908 112.248C237.802 111.087 234.386 111.487 231.279 113.14C228.172 114.793 226.55 117.074 227.656 118.234C228.763 119.395 232.179 118.995 235.286 117.342Z" fill="#A0616A"/>
</g>
<defs>
<clipPath id="clip0_17_123">
<rect width="436" height="219" fill="white"/>
</clipPath>
</defs>
</svg>
