<svg width="236" height="184" viewBox="0 0 236 184" fill="none" xmlns="http://www.w3.org/2000/svg">
<g clip-path="url(#clip0_15_271)">
<path d="M172.202 44.8101C172.202 62.4632 149.878 114.524 137.078 142.923C136.21 144.849 134.941 146.455 133.403 147.572C131.865 148.69 130.113 149.279 128.329 149.279C126.544 149.279 124.792 148.69 123.254 147.572C121.716 146.455 120.447 144.849 119.579 142.923C106.779 114.524 84.4556 62.4632 84.4556 44.8101C84.4556 20.0622 104.098 0 128.329 0C152.559 0 172.202 20.0622 172.202 44.8101Z" fill="#3401C6"/>
<path d="M128.534 73.8344C141.73 73.8344 152.428 60.6116 152.428 44.3005C152.428 27.9894 141.73 14.7666 128.534 14.7666C115.339 14.7666 104.641 27.9894 104.641 44.3005C104.641 60.6116 115.339 73.8344 128.534 73.8344Z" fill="white"/>
<path d="M28.8292 71.0238C36.733 71.0238 43.1403 63.1039 43.1403 53.3341C43.1403 43.5644 36.733 35.6445 28.8292 35.6445C20.9254 35.6445 14.5181 43.5644 14.5181 53.3341C14.5181 63.1039 20.9254 71.0238 28.8292 71.0238Z" fill="#FF6584"/>
<path d="M128.329 184C147.461 184 162.971 182.52 162.971 180.694C162.971 178.869 147.461 177.389 128.329 177.389C109.196 177.389 93.6865 178.869 93.6865 180.694C93.6865 182.52 109.196 184 128.329 184Z" fill="#3401C6"/>
<path opacity="0.4" d="M25.9155 69.0654C26.6439 63.5174 23.5958 58.29 19.1074 57.3897C14.619 56.4893 10.39 60.257 9.6616 65.805C8.93323 71.353 11.9813 76.5804 16.4697 77.4808C20.9581 78.3811 25.1872 74.6134 25.9155 69.0654Z" fill="#3401C6"/>
<path d="M210.413 119.933C145.576 89.8897 66.4974 119.179 20.8406 179.092C20.581 179.428 20.3215 179.77 20.0702 180.111H19.374C19.613 179.77 19.8601 179.428 20.1032 179.092C66.7075 114.622 144.736 88.9273 210.413 119.933Z" fill="#3F3D56"/>
<path d="M228.132 129.899C222.401 126.121 216.483 122.793 210.414 119.934C216.499 122.745 222.419 126.075 228.132 129.899Z" fill="#3F3D56"/>
<path opacity="0.4" d="M192.646 99.9243C197.633 99.9243 201.676 94.927 201.676 88.7625C201.676 82.5979 197.633 77.6006 192.646 77.6006C187.659 77.6006 183.616 82.5979 183.616 88.7625C183.616 94.927 187.659 99.9243 192.646 99.9243Z" fill="#3401C6"/>
<path d="M193.652 174.617C194.349 177.805 196.74 179.78 196.74 179.78C196.74 179.78 197.999 176.585 197.301 173.397C196.603 170.208 194.213 168.233 194.213 168.233C194.213 168.233 192.954 171.428 193.652 174.617Z" fill="#3F3D56"/>
<path d="M194.677 173.932C196.592 176.236 196.826 179.778 196.826 179.778C196.826 179.778 193.955 179.585 192.04 177.281C190.126 174.976 189.892 171.435 189.892 171.435C189.892 171.435 192.762 171.628 194.677 173.932Z" fill="#3401C6"/>
<path d="M1.38427 130.283V135.202L1.18652 135.467V130.232C1.25244 130.248 1.31837 130.268 1.38427 130.283Z" fill="#3F3D56"/>
<path d="M14.0642 179.091C14.0065 179.208 13.9447 179.325 13.8829 179.442H1.18652V130.528L1.38427 130.283L3.06915 132.651V129.188H8.42455V140.177L13.8335 147.769L13.8829 147.841C13.9488 148.095 14.0106 148.35 14.0724 148.604C14.0729 148.608 14.0743 148.612 14.0766 148.615C14.8878 151.823 15.5534 155.086 16.0704 158.386C17.2486 166.172 17.0715 173.311 14.0642 179.091Z" fill="#CCCCCC"/>
<path d="M5.64453 157.32H2.23584V160.831H5.64453V157.32Z" fill="#3F3D56"/>
<path d="M5.64453 163.641H2.23584V167.152H5.64453V163.641Z" fill="#3F3D56"/>
<path d="M110.646 150.649L108.941 147.138L124.849 130.285C136.609 123.288 150.784 125.307 165.753 130.285V135.2L150.982 154.863L133.938 159.076L110.646 150.649Z" fill="#3F3D56"/>
<path d="M172.794 140.175C175.619 136.291 176.011 132.598 172.794 129.188H167.439V132.652L165.753 130.284L152.118 147.138L149.845 149.947L147.005 163.992L152.118 179.44H178.251V147.84L172.794 140.175Z" fill="#CCCCCC"/>
<path d="M108.942 147.138H152.118V179.44H108.942C103.718 172.455 106.432 159.723 108.942 147.138Z" fill="#F2F2F2"/>
<path d="M146.153 157.32H137.063V167.152H146.153V157.32Z" fill="#3F3D56"/>
<path d="M133.371 156.97H125.417V179.441H133.371V156.97Z" fill="#CCCCCC"/>
<path d="M116.327 160.481V156.97H112.918V160.481H116.043H116.327Z" fill="#3F3D56"/>
<path d="M116.043 163.289H112.918V166.801H116.327V163.289H116.043Z" fill="#3F3D56"/>
<path d="M122.008 156.97H118.6V160.481H122.008V156.97Z" fill="#3F3D56"/>
<path d="M122.008 163.289H118.6V166.8H122.008V163.289Z" fill="#3F3D56"/>
<path d="M164.333 160.832V157.32H160.924V160.832H164.049H164.333Z" fill="#3F3D56"/>
<path d="M164.049 163.641H160.924V167.152H164.333V163.641H164.049Z" fill="#3F3D56"/>
<path d="M170.014 157.32H166.605V160.831H170.014V157.32Z" fill="#3F3D56"/>
<path d="M170.014 163.641H166.605V167.152H170.014V163.641Z" fill="#3F3D56"/>
<path d="M33.7662 91.662L30.9258 88.8527L46.833 71.2969H87.169V86.7462L61.0359 108.516L33.7662 91.662Z" fill="#3F3D56"/>
<path d="M94.5233 81.1449V71.6477H89.1679V73.9738L87.1691 71.2969L74.1023 88.8527L68.9896 93.0664L61.0615 164.662L73.0177 179.441H100.804C105.061 152.968 108.437 125.774 100.804 89.5549L94.5233 81.1449Z" fill="#CCCCCC"/>
<path d="M30.9257 88.8525H74.1024V179.441H30.9257C26.2009 144.248 23.8934 111.612 30.9257 88.8525Z" fill="#F2F2F2"/>
<path d="M55.6387 157.32H47.6851V179.441H55.6387V157.32Z" fill="#CCCCCC"/>
<path d="M39.1634 163.641V160.13H35.7549V163.641H38.8795H39.1634Z" fill="#3F3D56"/>
<path d="M38.8795 166.449H35.7549V169.961H39.1634V166.449H38.8795Z" fill="#3F3D56"/>
<path d="M44.8442 160.13H41.4355V163.641H44.8442V160.13Z" fill="#3F3D56"/>
<path d="M62.172 166.449H59.0474V169.961H62.4559V166.449H62.172Z" fill="#3F3D56"/>
<path d="M68.1372 160.13H64.7285V163.641H68.1372V160.13Z" fill="#3F3D56"/>
<path d="M68.1372 166.449H64.7285V169.96H68.1372V166.449Z" fill="#3F3D56"/>
<path d="M86.3167 93.4172V89.9062H82.9082V93.4172H86.0329H86.3167Z" fill="#3F3D56"/>
<path d="M86.0329 96.2266H82.9082V99.7375H86.3167V96.2266H86.0329Z" fill="#3F3D56"/>
<path d="M91.998 89.9062H88.5894V93.4174H91.998V89.9062Z" fill="#3F3D56"/>
<path d="M91.998 96.2266H88.5894V99.7377H91.998V96.2266Z" fill="#3F3D56"/>
<path d="M86.3167 113.08V109.568H82.9082V113.08H86.0329H86.3167Z" fill="#3F3D56"/>
<path d="M86.0329 115.889H82.9082V119.4H86.3167V115.889H86.0329Z" fill="#3F3D56"/>
<path d="M91.998 109.568H88.5894V113.08H91.998V109.568Z" fill="#3F3D56"/>
<path d="M91.998 115.889H88.5894V119.4H91.998V115.889Z" fill="#3F3D56"/>
<path d="M86.3167 132.743V129.231H82.9082V132.743H86.0329H86.3167Z" fill="#3F3D56"/>
<path d="M86.0329 135.552H82.9082V139.063H86.3167V135.552H86.0329Z" fill="#3F3D56"/>
<path d="M91.998 129.231H88.5894V132.743H91.998V129.231Z" fill="#3F3D56"/>
<path d="M91.998 135.552H88.5894V139.063H91.998V135.552Z" fill="#3F3D56"/>
<path d="M86.3167 152.405V148.894H82.9082V152.405H86.0329H86.3167Z" fill="#3F3D56"/>
<path d="M86.0329 155.214H82.9082V158.725H86.3167V155.214H86.0329Z" fill="#3F3D56"/>
<path d="M91.998 148.894H88.5894V152.405H91.998V148.894Z" fill="#3F3D56"/>
<path d="M91.998 155.214H88.5894V158.725H91.998V155.214Z" fill="#3F3D56"/>
<path d="M35.7544 93.417H68.7051V101.844C58.1434 98.2408 47.1296 98.4993 35.7544 101.844V93.417Z" fill="#3F3D56"/>
<path d="M35.7544 110.271C46.0387 114.016 57.0222 114.016 68.7051 110.271V118.697H35.7544V110.271Z" fill="#3F3D56"/>
<path d="M35.7544 127.124H68.7051V135.551C57.4756 131.119 46.4804 130.91 35.7544 135.551V127.124Z" fill="#3F3D56"/>
<path d="M35.7544 143.979C46.5006 149.098 57.4941 148.885 68.7051 143.979V152.405H35.7544V143.979Z" fill="#3F3D56"/>
<path d="M212.848 129.338H236V143.127L233.932 143.927L227.052 146.581L216.259 143.49L205.478 140.402L199.785 138.772L196.942 137.472C199.307 133.462 203.608 130.307 212.848 129.338Z" fill="#3F3D56"/>
<path d="M236 137.473V179.442H196.943C196.93 179.416 196.922 179.392 196.91 179.366V179.364C196.9 179.335 196.889 179.306 196.877 179.279C196.267 177.762 195.72 176.249 195.237 174.74C191.138 161.97 191.583 149.537 196.943 137.473H236Z" fill="#F2F2F2"/>
<path d="M221.656 157.32H213.702V179.441H221.656V157.32Z" fill="#CCCCCC"/>
<path d="M205.18 163.641V160.13H201.772V163.641H204.897H205.18Z" fill="#3F3D56"/>
<path d="M204.897 166.449H201.772V169.961H205.18V166.449H204.897Z" fill="#3F3D56"/>
<path d="M210.862 160.13H207.453V163.641H210.862V160.13Z" fill="#3F3D56"/>
<path d="M210.862 166.449H207.453V169.96H210.862V166.449Z" fill="#3F3D56"/>
<path d="M228.473 163.641V160.13H225.064V163.641H228.189H228.473Z" fill="#3F3D56"/>
<path d="M228.189 166.449H225.064V169.961H228.473V166.449H228.189Z" fill="#3F3D56"/>
<path d="M234.154 160.13H230.746V163.641H234.154V160.13Z" fill="#3F3D56"/>
<path d="M234.154 166.449H230.746V169.96H234.154V166.449Z" fill="#3F3D56"/>
<path d="M205.479 113.044H210.376C215.205 113.044 219.837 115.415 223.252 119.636C226.666 123.857 228.585 129.582 228.585 135.552H205.479V113.044Z" fill="#3F3D56"/>
<path d="M57.1763 51.9385H62.0727C66.902 51.9385 71.5335 54.3098 74.9484 58.5308C78.3632 62.7518 80.2817 68.4767 80.2817 74.4461H57.1763V51.9385Z" fill="#3F3D56"/>
<path d="M135.447 108.461H140.344C145.173 108.461 149.805 110.832 153.219 115.053C156.634 119.274 158.553 124.999 158.553 130.969H135.447V108.461Z" fill="#3F3D56"/>
<path d="M228.585 143.979H205.479V152.405H228.585V143.979Z" fill="#3F3D56"/>
<path d="M236 179.093H1.18652V180.111H236V179.093Z" fill="#3F3D56"/>
<path d="M22.8429 138.863H22.019V179.091H22.8429V138.863Z" fill="#3F3D56"/>
<path d="M30.4467 143.989C30.4992 158.056 22.4928 169.505 22.4928 169.505C22.4928 169.505 12.2396 157.904 14.3489 144.081C16.4703 130.179 23.0819 118.624 22.3029 118.565C22.3029 118.565 30.3943 129.923 30.4467 143.989Z" fill="#3401C6"/>
<path d="M105.234 138.863H104.41V179.091H105.234V138.863Z" fill="#3F3D56"/>
<path d="M112.838 143.989C113.58 158.026 104.884 169.505 104.884 169.505C104.884 169.505 96.7925 158.147 96.74 144.081C96.6876 130.014 104.694 118.565 104.694 118.565C103.913 122.421 112.237 132.632 112.838 143.989Z" fill="#3401C6"/>
<path d="M51.7056 73.4727L87.4936 71.3086L102.506 86.7981L99.8522 89.7602L76.0788 89.0987L51.7056 73.4727Z" fill="#3F3D56"/>
<path d="M15.9962 145.355L14.0682 147.509L13.8334 147.769L13.3432 148.319L1.18643 147.983V130.232C0.790953 130.125 0.395475 130.023 0 129.926L0.984575 129.865L1.18643 130.074L3.06906 132.014L8.42445 137.544L14.406 143.716L15.9962 145.355Z" fill="#3F3D56"/>
<path d="M129.977 132.031L165.765 129.867L180.777 145.357L178.123 148.319L154.35 147.657L129.977 132.031Z" fill="#3F3D56"/>
</g>
<defs>
<clipPath id="clip0_15_271">
<rect width="236" height="184" fill="white"/>
</clipPath>
</defs>
</svg>
