<svg width="278" height="108" viewBox="0 0 278 108" fill="none" xmlns="http://www.w3.org/2000/svg">
<g clip-path="url(#clip0_20_215)">
<path d="M170.101 108H108.161C106.409 108 104.984 106.697 104.984 105.096V2.90387C104.984 1.30276 106.409 0 108.161 0H170.101C171.853 0 173.278 1.30276 173.278 2.90387V105.096C173.278 106.697 171.853 108 170.101 108ZM132.37 0.484926C117.539 0.484926 105.515 11.476 105.515 25.0342V105.096C105.515 106.432 106.7 107.515 108.161 107.515H170.101C171.562 107.515 172.747 106.432 172.747 105.096V2.90387C172.747 1.56792 171.562 0.484923 170.101 0.484923L132.37 0.484926Z" fill="#E6E6E6"/>
<path d="M172.956 26.9302C172.956 27.1033 173.168 27.2423 173.433 27.2423H255.267C255.532 27.2423 255.744 27.1033 255.744 26.9302C255.744 26.7572 255.532 26.6182 255.267 26.6182H173.433C173.168 26.6182 172.956 26.7572 172.956 26.9302Z" fill="#E6E6E6"/>
<path d="M106.401 71.4971L107.211 91.1164H105.24V93.3374H110.75V91.1164H109.143L109.257 71.4971H106.401Z" fill="#3F3D56"/>
<path d="M104.275 87.9697C105.114 87.9697 105.794 88.5912 105.794 89.3579V95.0956C105.794 95.8623 105.114 96.4838 104.275 96.4838C103.437 96.4838 102.757 95.8623 102.757 95.0956V89.3579C102.757 88.5912 103.437 87.9697 104.275 87.9697Z" fill="#3F3D56"/>
<path d="M111.969 87.9697C112.808 87.9697 113.488 88.5912 113.488 89.3579V95.0956C113.488 95.8623 112.808 96.4838 111.969 96.4838C111.131 96.4838 110.451 95.8623 110.451 95.0956V89.3579C110.451 88.5912 111.131 87.9697 111.969 87.9697Z" fill="#3F3D56"/>
<path d="M124.321 59.273L93.1392 57.9774L97.9986 55.9414L125.333 56.3116L124.321 59.273Z" fill="white"/>
<path d="M0 62.1501L3.76574 60.8545L120.676 63.6308L125.535 61.5948L123.511 74.1808L30.6437 65.135L0 62.1501Z" fill="white"/>
<path d="M30.0679 69.4608L30.6438 65.1348L123.511 74.1806L123.005 80.5661L30.0679 69.4608Z" fill="#3F3D56"/>
<path d="M92.5317 82.232C97.8434 82.232 102.149 78.0472 102.149 72.885C102.149 67.7229 97.8434 63.5381 92.5317 63.5381C87.22 63.5381 82.9141 67.7229 82.9141 72.885C82.9141 78.0472 87.22 82.232 92.5317 82.232Z" fill="#3F3D56"/>
<path d="M92.5315 77.6974C96.4454 77.6974 99.6182 74.797 99.6182 71.2193C99.6182 67.6415 96.4454 64.7412 92.5315 64.7412C88.6176 64.7412 85.4448 67.6415 85.4448 71.2193C85.4448 74.797 88.6176 77.6974 92.5315 77.6974Z" fill="white"/>
<path d="M171.598 71.4971L170.789 91.1164H172.76V93.3374H167.25V91.1164H168.857L168.742 71.4971H171.598Z" fill="#3F3D56"/>
<path d="M173.725 87.9697H173.725C172.886 87.9697 172.206 88.5912 172.206 89.3579V95.0956C172.206 95.8623 172.886 96.4838 173.725 96.4838H173.725C174.563 96.4838 175.243 95.8623 175.243 95.0956V89.3579C175.243 88.5912 174.563 87.9697 173.725 87.9697Z" fill="#3F3D56"/>
<path d="M166.031 87.9697H166.031C165.192 87.9697 164.512 88.5912 164.512 89.3579V95.0956C164.512 95.8623 165.192 96.4838 166.031 96.4838H166.031C166.869 96.4838 167.549 95.8623 167.549 95.0956V89.3579C167.549 88.5912 166.869 87.9697 166.031 87.9697Z" fill="#3F3D56"/>
<path d="M153.679 59.273L184.861 57.9774L180.001 55.9414L152.667 56.3116L153.679 59.273Z" fill="white"/>
<path d="M142.519 55.2857L141.102 26.7822L138.875 31.2243L139.279 56.2112L142.519 55.2857Z" fill="white"/>
<path d="M278 62.1501L274.234 60.8545L157.324 63.6308L152.465 61.5948L154.49 74.1808L247.356 65.135L278 62.1501Z" fill="white"/>
<path d="M247.932 69.4608L247.356 65.1348L154.489 74.1806L154.995 80.5661L247.932 69.4608Z" fill="#3F3D56"/>
<path d="M185.468 82.232C190.78 82.232 195.086 78.0472 195.086 72.885C195.086 67.7229 190.78 63.5381 185.468 63.5381C180.157 63.5381 175.851 67.7229 175.851 72.885C175.851 78.0472 180.157 82.232 185.468 82.232Z" fill="#3F3D56"/>
<path d="M185.469 77.6974C189.382 77.6974 192.555 74.797 192.555 71.2193C192.555 67.6415 189.382 64.7412 185.469 64.7412C181.555 64.7412 178.382 67.6415 178.382 71.2193C178.382 74.797 181.555 77.6974 185.469 77.6974Z" fill="white"/>
<path d="M156.666 55.7223L156.206 58.8182L155.967 75.4836C155.949 76.7236 155.785 77.9489 155.477 79.1372C154.59 82.5983 152.519 85.7467 149.46 88.0288C146.684 90.1018 142.897 91.6713 137.886 91.3937C124.523 90.6533 123.342 80.257 123.342 80.257L123.846 61.4039L123.915 58.8182L124.523 54.1528C124.523 54.1528 126.143 41.0115 141.126 41.3817C156.109 41.7519 156.666 55.7223 156.666 55.7223Z" fill="white"/>
<path d="M127.763 51.3769L130.8 46.9347L134.647 45.8242H147.808L151.047 46.9347L153.987 51.3769L148.618 49.1558H133.555L127.763 51.3769Z" fill="#E6E6E6"/>
<path d="M138.9 83.3125L139.42 95.8985H138.155V97.3233H141.69V95.8985H140.659L140.733 83.3125H138.9Z" fill="#3F3D56"/>
<path d="M137.537 93.8799C138.075 93.8799 138.511 94.2786 138.511 94.7704V98.4512C138.511 98.943 138.075 99.3417 137.537 99.3417C136.999 99.3417 136.562 98.943 136.562 98.4512V94.7704C136.562 94.2786 136.999 93.8799 137.537 93.8799Z" fill="#3F3D56"/>
<path d="M142.473 93.8799C143.011 93.8799 143.447 94.2786 143.447 94.7704V98.4512C143.447 98.943 143.011 99.3417 142.473 99.3417C141.935 99.3417 141.499 98.943 141.499 98.4512V94.7704C141.499 94.2786 141.935 93.8799 142.473 93.8799Z" fill="#3F3D56"/>
<path d="M135.131 43.0964L132.334 52.3027L132.873 52.4396L135.67 43.2333L135.131 43.0964Z" fill="white"/>
<path d="M147.816 44.5644L147.267 44.6631L149.282 54.0386L149.832 53.94L147.816 44.5644Z" fill="white"/>
<path d="M205.456 29.857C207.464 29.857 209.092 28.3685 209.092 26.5325C209.092 24.6964 207.464 23.208 205.456 23.208C203.447 23.208 201.819 24.6964 201.819 26.5325C201.819 28.3685 203.447 29.857 205.456 29.857Z" fill="white"/>
<path d="M104.796 40.7388C106.805 40.7388 108.433 39.2504 108.433 37.4143C108.433 35.5783 106.805 34.0898 104.796 34.0898C102.788 34.0898 101.16 35.5783 101.16 37.4143C101.16 39.2504 102.788 40.7388 104.796 40.7388Z" fill="white"/>
<path d="M22.4487 99.813C22.4487 99.9861 22.661 100.125 22.9254 100.125H104.76C105.024 100.125 105.237 99.9861 105.237 99.813C105.237 99.64 105.024 99.501 104.76 99.501H22.9254C22.661 99.501 22.4487 99.64 22.4487 99.813Z" fill="#E6E6E6"/>
<path d="M54.9483 102.74C56.9569 102.74 58.5851 101.251 58.5851 99.4153C58.5851 97.5792 56.9569 96.0908 54.9483 96.0908C52.9398 96.0908 51.3115 97.5792 51.3115 99.4153C51.3115 101.251 52.9398 102.74 54.9483 102.74Z" fill="white"/>
</g>
<defs>
<clipPath id="clip0_20_215">
<rect width="278" height="108" fill="white"/>
</clipPath>
</defs>
</svg>
