<svg width="65" height="45" viewBox="0 0 65 45" fill="none" xmlns="http://www.w3.org/2000/svg">
<path fill-rule="evenodd" clip-rule="evenodd" d="M1.21205 1.33864C0.333374 2.21732 0.333374 3.63154 0.333374 6.45996V38.56C0.333374 41.3884 0.333374 42.8026 1.21205 43.6813C2.09073 44.56 3.50495 44.56 6.33337 44.56H58.3334C61.1618 44.56 62.576 44.56 63.4547 43.6813C64.3334 42.8026 64.3334 41.3884 64.3334 38.56V6.45996C64.3334 3.63153 64.3334 2.21732 63.4547 1.33864C62.576 0.459961 61.1618 0.459961 58.3334 0.459961H6.33337C3.50495 0.459961 2.09073 0.459961 1.21205 1.33864ZM11.5084 12.1992C11.0329 11.9183 10.4197 12.0761 10.1388 12.5517C9.85798 13.0272 10.0158 13.6404 10.4913 13.9213L31.3161 26.2209C31.9435 26.5915 32.7229 26.5915 33.3503 26.2209L54.1751 13.9213C54.6506 13.6404 54.8084 13.0272 54.5276 12.5517C54.2467 12.0761 53.6335 11.9183 53.158 12.1992L32.3332 24.4988L11.5084 12.1992Z" fill="#6E6592"/>
</svg>
