<svg width="61" height="56" viewBox="0 0 61 56" fill="none" xmlns="http://www.w3.org/2000/svg">
<path d="M2.26063 11.1451L13.908 0.607017C14.2889 0.262398 14.869 0.262399 15.2499 0.607018L27.0225 11.2585C27.4613 11.6555 27.4613 12.3445 27.0225 12.7415L19.07 19.9367C18.3815 20.5596 18.2122 21.5745 18.6613 22.3871L20.8329 26.3166C23.2308 30.6558 26.9666 34.1039 31.4836 36.1473L36.5953 38.4598C37.3205 38.7878 38.1712 38.6546 38.7614 38.1206L47.0659 30.607C47.4468 30.2624 48.0269 30.2624 48.4078 30.607L60.1804 41.2585C60.6192 41.6555 60.6192 42.3445 60.1804 42.7415L47.9158 53.8381C45.8645 55.694 42.8103 55.907 40.5213 54.3537L20.6006 40.8361C18.8057 39.6182 17.1922 38.1524 15.8079 36.4825L1.66684 19.4235C-0.383477 16.9501 -0.121707 13.3006 2.26063 11.1451Z" fill="#6E6592"/>
</svg>
