<svg width="81" height="69" viewBox="0 0 81 69" fill="none" xmlns="http://www.w3.org/2000/svg">
<path fill-rule="evenodd" clip-rule="evenodd" d="M38.4581 34.7401L4.59107 25.3032C1.79862 24.5251 0.402405 24.1361 0.402405 23.3766C0.402405 22.6172 1.79862 22.2281 4.59106 21.45L77.6901 1.0812C79.3856 0.608774 80.2333 0.37256 80.6479 0.834438C81.0626 1.29632 80.7366 2.11374 80.0847 3.74859L55.4705 65.4767C54.6839 67.4494 54.2905 68.4357 53.6127 68.4357C52.9349 68.4357 52.5416 67.4494 51.755 65.4767L40.0181 36.0428L58.9161 20.2452C59.3398 19.891 59.3962 19.2603 59.042 18.8366C58.6877 18.4129 58.0571 18.3565 57.6334 18.7107L38.4581 34.7401Z" fill="#6E6592"/>
</svg>
