<svg width="60" height="42" viewBox="0 0 60 42" fill="none" xmlns="http://www.w3.org/2000/svg">
<path d="M60 4.97657C57.7493 5.83226 55.368 6.39601 52.9313 6.65C55.4921 5.33792 57.4179 3.25344 58.3475 0.787516C55.9264 2.02628 53.2819 2.89546 50.5275 3.35782C49.3676 2.29418 47.9727 1.44803 46.4274 0.870799C44.8822 0.293564 43.2189 -0.00269863 41.5387 1.8522e-05C34.7363 1.8522e-05 29.2313 4.74688 29.2313 10.5984C29.2264 11.4124 29.333 12.2239 29.5487 13.0156C24.6709 12.8155 19.8944 11.7267 15.525 9.81886C11.1555 7.91101 7.28936 5.22611 4.17375 1.93595C3.08072 3.54826 2.50267 5.38786 2.5 7.2625C2.5 10.9375 4.69125 14.1859 8 16.089C6.03966 16.0483 4.11949 15.5943 2.4025 14.7656V14.8968C2.4025 20.0375 6.6525 24.314 12.2775 25.2874C11.2197 25.5342 10.1297 25.6592 9.035 25.6593C8.25822 25.6605 7.48321 25.5946 6.72125 25.4624C8.285 29.6734 12.8363 32.7359 18.2275 32.8234C13.8467 35.7775 8.46827 37.3742 2.9375 37.3624C1.95577 37.3611 0.974957 37.31 0 37.2093C5.62647 40.3529 12.1668 42.0158 18.8425 41.9999C41.5125 41.9999 53.8975 25.8453 53.8975 11.8344C53.8975 11.375 53.8838 10.9156 53.8587 10.4672C56.2626 8.97099 58.3423 7.11168 60 4.97657Z" fill="#6E6592"/>
</svg>
