<svg width="64" height="40" viewBox="0 0 64 40" fill="none" xmlns="http://www.w3.org/2000/svg">
<path d="M63.5888 8.83205C63.5888 4.14468 59.4508 0.373948 54.3376 0.373948C47.4117 0.104163 40.3483 0 33.1299 0H30.8797C23.6787 0 16.6029 0.104164 9.67698 0.37499C4.57634 0.37499 0.438315 4.16655 0.438315 8.85393C0.125776 12.5611 -0.00674071 16.2693 0.000760231 19.9776C-0.0117413 23.6858 0.129943 27.3975 0.425814 31.1127C0.425814 35.8001 4.56384 39.602 9.66448 39.602C16.9404 39.8833 24.4038 40.0083 31.9923 39.9979C39.5933 40.0187 47.0359 39.8868 54.3201 39.602C59.4333 39.602 63.5713 35.8001 63.5713 31.1127C63.8713 27.394 64.0088 23.6858 63.9963 19.9672C64.0247 16.2589 63.8888 12.5472 63.5888 8.83205ZM25.879 30.1961V9.72786L44.0063 19.9567L25.879 30.1961Z" fill="#6E6592"/>
</svg>
